<?xml version="1.0" standalone="no"?>
<!DOCTYPE svg PUBLIC "-//W3C//DTD SVG 20010904//EN"
 "http://www.w3.org/TR/2001/REC-SVG-20010904/DTD/svg10.dtd">
<svg version="1.0" xmlns="http://www.w3.org/2000/svg"
 width="1280.000000pt" height="1252.000000pt" viewBox="0 0 1280.000000 1252.000000"
 preserveAspectRatio="xMidYMid meet">
<metadata>
Created by potrace 1.15, written by Peter Selinger 2001-2017
</metadata>
<g transform="translate(0.000000,1252.000000) scale(0.100000,-0.100000)"
fill="#f44336" stroke="none">
<path d="M8770 12510 l-195 -5 3 -160 2 -160 -20 37 c-23 43 -46 52 -101 43
-45 -8 -93 -44 -115 -88 -41 -77 -57 -338 -30 -464 16 -77 8 -130 -33 -211
-101 -199 -435 -529 -708 -698 -80 -50 -528 -291 -748 -404 -45 -22 -64 -25
-183 -28 -244 -7 -329 22 -488 169 -123 113 -199 168 -297 215 -76 36 -78 36
-259 45 -346 17 -369 24 -608 174 -227 142 -462 253 -629 296 -292 75 -473 29
-635 -161 -59 -69 -97 -143 -140 -274 -42 -125 -106 -255 -177 -355 -42 -60
-54 -71 -86 -77 -49 -9 -563 13 -628 27 -27 6 -82 26 -120 44 -87 39 -278 151
-341 199 -77 59 -152 68 -227 29 -16 -8 -55 -39 -87 -68 -39 -36 -73 -58 -102
-65 -24 -6 -51 -14 -62 -17 -29 -8 -96 -73 -96 -93 0 -26 -19 -37 -78 -45 -65
-9 -141 -57 -162 -102 l-15 -33 -97 2 c-90 2 -100 0 -123 -22 -35 -33 -43 -71
-53 -252 -8 -133 -12 -162 -31 -193 -36 -62 -101 -133 -131 -144 -87 -30 -251
-255 -309 -423 -26 -77 -40 -97 -84 -119 -46 -24 -47 -51 -2 -59 18 -3 31 -12
33 -23 4 -22 -57 -49 -102 -45 -26 3 -31 7 -28 27 2 24 1 24 -60 18 -124 -12
-286 -67 -328 -112 -29 -31 -17 -35 55 -19 73 15 112 17 119 5 13 -20 -17
-113 -45 -146 -16 -18 -29 -44 -29 -59 0 -19 -13 -35 -54 -65 -62 -46 -96
-107 -122 -218 -27 -116 -3 -231 70 -325 36 -48 76 -138 76 -174 0 -44 19 -94
36 -94 8 0 21 15 29 34 21 49 35 54 62 20 12 -16 23 -33 23 -38 0 -4 17 -45
38 -90 32 -68 50 -91 103 -137 154 -131 194 -191 208 -316 9 -85 17 -105 122
-288 132 -232 149 -343 85 -554 -45 -148 -115 -464 -122 -551 -5 -61 -1 -77
56 -240 112 -319 149 -439 159 -520 7 -50 20 -99 37 -132 29 -58 29 -58 -17
-211 l-23 -77 22 -23 c20 -19 33 -22 112 -22 l89 0 127 65 c69 36 131 65 138
65 6 0 14 -16 17 -35 l6 -35 17 40 c13 27 16 52 12 82 -5 38 -3 45 20 60 26
16 27 16 46 -7 16 -20 19 -37 16 -114 -3 -84 -2 -91 16 -91 32 0 56 55 66 150
5 48 14 93 21 101 33 40 109 56 141 32 22 -18 75 -104 89 -145 9 -28 7 -40
-11 -78 -27 -55 -20 -82 25 -101 l34 -14 -16 -52 c-8 -29 -33 -93 -54 -143
-45 -105 -47 -115 -16 -115 30 0 70 28 122 85 24 26 50 45 57 43 19 -7 21 -60
4 -119 -21 -70 -20 -82 9 -117 30 -36 31 -50 4 -102 -25 -49 -21 -76 23 -125
37 -43 165 -106 262 -130 150 -36 475 -40 679 -8 54 8 104 12 112 9 32 -12 10
-178 -40 -295 -32 -77 -30 -99 14 -128 46 -31 57 -29 80 15 11 20 54 78 97
127 85 99 112 149 121 226 4 38 15 61 41 92 90 107 128 285 82 386 -31 68 -50
153 -50 226 0 49 3 66 13 63 6 -3 16 -18 20 -34 5 -16 25 -69 45 -119 64 -162
74 -199 83 -298 8 -98 32 -171 67 -210 59 -66 253 -102 324 -60 48 28 62 64
62 163 -1 123 -31 224 -119 398 -61 122 -89 195 -164 432 -49 157 -99 317
-110 357 -10 39 -37 102 -59 140 -22 37 -47 92 -56 122 -22 75 -89 556 -81
589 3 15 21 47 40 71 41 51 41 53 16 179 -47 233 -76 977 -44 1110 4 17 11 22
27 20 15 -2 60 -62 160 -213 169 -257 383 -565 514 -743 54 -73 140 -203 192
-290 52 -86 127 -205 167 -264 83 -123 126 -204 184 -350 139 -350 396 -814
764 -1378 106 -162 205 -320 221 -350 15 -30 54 -95 86 -144 32 -48 65 -113
74 -142 9 -32 25 -61 40 -73 30 -24 54 -68 54 -102 0 -17 24 -58 65 -114 36
-48 65 -92 65 -98 0 -6 15 -33 34 -61 34 -51 34 -51 39 -191 2 -77 10 -153 16
-170 20 -48 31 -121 41 -265 5 -82 19 -173 34 -232 62 -243 201 -456 316 -486
59 -15 70 0 70 98 0 43 3 85 6 94 9 23 38 20 72 -9 46 -39 77 -46 227 -55 150
-9 174 -14 248 -62 53 -34 159 -70 181 -62 8 3 17 12 20 21 5 12 19 14 79 8
60 -6 75 -4 86 9 29 35 -23 171 -104 270 -56 70 -65 87 -65 135 0 40 22 75 44
68 6 -2 17 -17 25 -35 17 -37 41 -48 72 -32 30 17 21 44 -61 180 -38 63 -78
140 -90 171 -35 96 -156 330 -218 424 -88 132 -184 238 -323 355 -68 57 -152
133 -186 168 -199 205 -515 810 -763 1459 -71 186 -164 407 -225 533 -110 230
-195 423 -195 444 0 21 -96 175 -138 220 -48 52 -125 191 -156 282 -29 84 -34
95 -238 529 -231 489 -266 588 -223 635 23 25 59 25 307 5 392 -33 593 -67
801 -135 178 -58 274 -108 336 -176 173 -189 425 -714 482 -1002 15 -78 7
-186 -21 -273 -24 -77 -25 -117 -4 -205 10 -46 14 -106 12 -193 -2 -103 1
-135 16 -173 18 -46 18 -46 -6 -78 -23 -31 -23 -36 -26 -303 -5 -360 -1 -382
93 -597 181 -411 199 -436 585 -820 398 -395 372 -356 608 -925 39 -93 104
-244 144 -335 41 -91 87 -197 101 -235 15 -39 50 -102 78 -140 189 -260 465
-969 535 -1375 21 -126 30 -459 15 -585 -6 -54 -9 -100 -6 -103 2 -3 229 0
502 5 287 6 499 7 501 2 2 -5 66 -9 141 -9 l138 0 23 143 c13 78 25 171 25
207 1 36 7 83 13 105 6 22 20 141 32 265 23 254 25 270 43 270 7 0 52 -16 101
-35 130 -53 234 -75 376 -82 146 -6 287 12 407 52 118 39 273 118 313 160 33
35 35 39 35 108 -1 105 -44 171 -146 222 -51 26 -69 49 -69 87 0 13 -16 50
-35 83 -107 183 -117 236 -119 620 -1 202 3 318 13 383 13 85 13 95 -4 132
-16 36 -17 42 -3 58 36 40 42 69 49 232 8 178 18 233 90 465 55 177 130 358
194 468 29 51 103 189 165 307 62 118 209 387 326 598 313 560 342 619 548
1142 57 146 139 339 181 430 94 202 120 279 136 395 15 119 7 412 -15 478 -25
79 -98 207 -142 251 -22 23 -53 61 -68 84 -15 24 -41 51 -58 60 -16 10 -61 36
-98 60 -89 56 -130 62 -421 62 -342 0 -481 -17 -773 -97 -318 -86 -996 -329
-1509 -540 -87 -36 -160 -64 -161 -62 -2 2 -11 150 -20 329 -9 179 -21 402
-27 495 -5 94 -41 757 -79 1475 -39 718 -76 1419 -84 1558 l-14 253 72 73
c105 106 109 118 104 295 -3 124 -7 153 -26 195 -17 37 -22 68 -22 126 0 64
-4 83 -23 111 -36 53 -38 66 -17 122 11 29 20 57 20 64 0 21 -81 92 -127 110
l-43 18 0 55 c0 30 -3 72 -6 93 l-7 37 -141 -2 c-77 -1 -229 -5 -336 -8z
m-111 -2022 c6 -150 25 -565 41 -923 16 -357 43 -956 60 -1330 17 -374 37
-823 45 -997 20 -433 21 -408 -13 -408 -41 0 -77 43 -121 146 -36 83 -45 109
-72 217 -19 75 -130 360 -182 462 -69 140 -426 687 -622 955 -161 220 -228
323 -266 405 -16 35 -42 79 -57 97 -57 65 -92 121 -92 146 0 31 81 110 160
155 66 38 269 238 293 290 10 20 49 65 88 99 45 40 72 73 76 91 3 15 22 40 44
58 87 69 349 417 349 464 0 6 21 38 48 71 26 32 63 90 81 127 32 63 100 147
119 147 5 0 14 -123 21 -272z m2038 -5170 c-4 -43 -45 -251 -91 -461 -87 -388
-104 -457 -149 -582 -17 -48 -31 -119 -42 -222 -8 -83 -20 -178 -25 -210 -6
-32 -10 -77 -10 -100 0 -51 -8 -73 -26 -73 -7 0 -27 -24 -45 -52 -40 -67 -95
-111 -228 -184 -58 -31 -130 -73 -159 -92 -45 -30 -56 -34 -77 -24 -35 16 -51
54 -75 181 -11 62 -25 124 -30 137 -8 21 -60 865 -60 967 0 30 7 36 88 82 229
129 418 273 721 548 107 97 199 173 204 170 6 -3 7 -37 4 -85z m-532 -3133
c13 -22 33 -75 44 -118 40 -149 23 -367 -30 -367 -29 0 -47 75 -99 408 -16
106 -30 199 -30 205 1 16 86 -79 115 -128z"/>
</g>
</svg>
