<?xml version="1.0" standalone="no"?>
<!DOCTYPE svg PUBLIC "-//W3C//DTD SVG 20010904//EN"
 "http://www.w3.org/TR/2001/REC-SVG-20010904/DTD/svg10.dtd">
<svg version="1.0" xmlns="http://www.w3.org/2000/svg"
 width="989.000000pt" height="1280.000000pt" viewBox="0 0 989.000000 1280.000000"
 preserveAspectRatio="xMidYMid meet">
<metadata>
Created by potrace 1.15, written by Peter Selinger 2001-2017
</metadata>
<g transform="translate(0.000000,1280.000000) scale(0.100000,-0.100000)"
fill="#f44336" stroke="none">
<path d="M4523 12118 c-32 -36 -40 -57 -53 -153 -16 -109 -48 -195 -65 -172
-6 8 -71 49 -145 92 -73 42 -148 88 -165 101 -40 30 -53 30 -66 0 -16 -35 10
-76 95 -149 41 -34 73 -64 71 -65 -2 -2 -25 6 -52 18 -92 41 -177 71 -190 66
-7 -3 -13 -17 -13 -32 0 -36 54 -85 124 -114 54 -23 54 -23 39 -46 -26 -40
-13 -143 30 -249 20 -49 41 -124 47 -165 6 -41 15 -98 20 -127 5 -28 6 -83 3
-122 -5 -62 -7 -68 -17 -49 -16 32 -60 36 -80 6 -20 -28 -20 -65 -1 -98 8 -14
14 -33 15 -43 0 -15 -7 -16 -56 -11 -55 7 -57 6 -90 -29 -27 -31 -40 -37 -72
-37 -45 0 -56 -10 -74 -65 -10 -30 -20 -41 -48 -50 -41 -14 -89 -76 -90 -116
0 -17 15 -45 41 -75 50 -60 79 -115 79 -149 0 -28 -13 -31 -72 -15 -76 22
-168 -29 -154 -85 8 -33 55 -54 142 -62 35 -3 69 -12 75 -19 8 -9 -3 -36 -44
-106 -92 -156 -330 -647 -366 -753 -19 -55 -47 -131 -63 -169 -37 -84 -38
-144 -9 -271 33 -142 99 -553 126 -786 44 -378 60 -464 174 -954 108 -465 144
-579 287 -904 60 -139 70 -171 101 -330 88 -457 140 -675 223 -937 77 -241 83
-281 72 -471 -14 -227 -2 -209 -387 -603 -183 -187 -211 -223 -270 -340 -72
-143 -155 -436 -155 -544 1 -63 31 -173 69 -251 53 -108 124 -199 222 -286
179 -157 344 -335 484 -519 l78 -103 -44 7 c-70 10 -383 34 -656 51 -409 25
-482 54 -568 225 -50 100 -81 137 -140 166 -46 22 -64 26 -102 20 -60 -8 -134
-43 -203 -96 -121 -92 -246 -132 -450 -145 -223 -14 -363 -46 -417 -97 -18
-17 -29 -19 -60 -14 -65 13 -75 9 -143 -61 -75 -76 -93 -118 -63 -148 10 -11
16 -29 15 -45 -2 -15 5 -37 16 -50 18 -22 20 -22 73 -9 67 16 158 14 241 -5
35 -8 119 -22 188 -31 92 -13 158 -29 250 -62 219 -79 200 -75 590 -123 542
-67 729 -114 1150 -288 107 -44 292 -117 410 -160 267 -99 564 -231 735 -325
71 -40 143 -77 160 -84 18 -7 90 -12 177 -12 175 -1 193 4 346 100 170 105
214 157 248 290 33 129 -5 372 -101 649 -77 221 -279 562 -487 822 -49 61 -87
112 -85 115 4 4 255 -56 854 -203 198 -48 340 -96 588 -196 410 -167 586 -221
854 -263 189 -29 267 -31 338 -10 103 31 149 83 180 209 16 66 16 68 -10 154
-14 48 -29 107 -32 132 -23 167 -96 235 -380 356 -49 21 -120 57 -156 81 -155
99 -356 182 -479 198 -68 8 -265 112 -625 328 -357 215 -596 322 -890 397 -88
23 -163 45 -168 49 -4 4 -12 35 -18 70 l-11 62 84 127 c47 70 124 174 172 232
48 58 102 132 121 165 34 60 112 246 135 320 7 22 16 44 20 48 4 5 36 14 72
22 129 27 257 115 327 224 43 66 78 165 100 283 11 57 23 115 26 129 5 20 0
34 -23 60 -16 19 -37 50 -47 69 -10 19 -75 127 -145 240 -162 261 -224 371
-257 456 -25 67 -26 77 -33 379 -5 171 -6 328 -4 350 3 22 6 177 9 345 2 168
8 323 12 345 9 41 16 46 86 60 18 4 31 15 38 32 5 14 21 39 34 55 29 34 32 75
10 118 -17 33 -28 40 -19 13 5 -15 4 -16 -5 -3 -18 26 -12 68 14 96 14 15 25
36 25 48 0 20 -1 19 -13 -3 -15 -31 -34 -37 -40 -14 -4 14 -5 13 -6 -4 -2 -40
-20 -25 -27 22 -3 25 -10 47 -14 50 -4 3 -4 22 1 42 5 21 9 54 9 73 0 49 -18
25 -23 -30 -2 -25 -4 -4 -4 45 -1 60 -6 103 -17 129 -9 22 -14 48 -10 58 3 10
-1 37 -10 61 -10 28 -19 112 -26 247 -17 314 -37 487 -62 529 -35 61 -200 200
-386 326 -97 66 -215 150 -262 186 -47 36 -191 139 -320 229 -405 281 -555
403 -578 469 -12 37 -11 43 39 157 32 73 57 149 65 198 8 43 23 122 33 175 11
53 31 181 46 286 25 180 25 192 11 255 -36 149 -51 352 -38 498 5 58 4 96 -2
102 -16 16 -41 11 -63 -12z m-207 -616 c7 -26 -4 -97 -14 -88 -3 4 -18 42 -32
84 -15 42 -30 86 -34 97 -4 11 11 0 33 -25 23 -25 44 -55 47 -68z m53 -1520
c98 -69 199 -161 461 -416 l175 -171 -65 -11 c-36 -7 -95 -18 -132 -25 -38 -6
-68 -16 -68 -20 0 -5 7 -6 15 -3 8 4 15 2 15 -4 0 -14 -25 -22 -69 -22 -85 0
-128 -11 -140 -36 -8 -18 -18 -24 -44 -24 -60 0 -155 -37 -205 -80 -27 -22
-55 -40 -63 -40 -20 0 -92 -39 -106 -58 -7 -9 -13 -27 -13 -40 0 -15 -7 -26
-20 -29 -11 -3 -20 -9 -20 -14 0 -5 -23 -23 -50 -40 -50 -30 -160 -149 -160
-172 -1 -21 -17 17 -24 55 -8 45 17 124 78 247 68 136 109 252 216 615 56 187
103 343 106 348 8 13 14 10 113 -60z m1791 -2012 c0 -5 -5 -10 -11 -10 -5 0
-7 5 -4 10 3 6 8 10 11 10 2 0 4 -4 4 -10z m-83 -87 c-2 -16 -4 -3 -4 27 0 30
2 43 4 28 2 -16 2 -40 0 -55z m86 11 c22 -44 22 -66 -1 -94 l-19 -23 -15 22
c-12 16 -13 32 -7 64 4 23 8 48 9 55 0 22 15 12 33 -24z m-743 -351 c-1 -27
-28 -107 -37 -110 -13 -5 -6 70 9 100 9 17 28 24 28 10z m-1130 -202 c5 -11
16 -25 23 -33 7 -7 31 -40 54 -73 42 -62 63 -78 123 -93 l35 -8 -70 -51 c-38
-29 -72 -50 -76 -47 -4 2 -15 30 -24 62 -20 69 -75 213 -87 227 -11 12 -10 35
2 35 5 0 14 -9 20 -19z m1129 -61 c11 -54 10 -65 -6 -98 -13 -27 -25 -38 -45
-40 -28 -3 -28 -3 -28 60 0 35 3 80 6 101 6 32 10 37 34 37 26 0 28 -4 39 -60z"/>
</g>
</svg>
