<?xml version="1.0" standalone="no"?>
<!DOCTYPE svg PUBLIC "-//W3C//DTD SVG 20010904//EN"
 "http://www.w3.org/TR/2001/REC-SVG-20010904/DTD/svg10.dtd">
<svg version="1.0" xmlns="http://www.w3.org/2000/svg"
 width="1280.000000pt" height="791.000000pt" viewBox="0 0 1280.000000 791.000000"
 preserveAspectRatio="xMidYMid meet">
<metadata>
Created by potrace 1.15, written by Peter Selinger 2001-2017
</metadata>
<g transform="translate(0.000000,791.000000) scale(0.100000,-0.100000)"
fill="#f44336" stroke="none">
<path d="M11281 6567 c-1 -25 -43 -97 -57 -97 -7 0 -15 12 -18 26 -6 21 -9 24
-21 14 -8 -7 -12 -16 -9 -21 3 -5 0 -9 -6 -9 -7 0 -10 7 -6 15 7 20 -13 19
-35 -1 -22 -20 -39 -10 -39 22 0 16 8 28 23 34 15 6 17 9 6 9 -9 1 -30 -6 -45
-14 -22 -11 -30 -24 -34 -52 -3 -22 -10 -38 -17 -37 -7 1 -49 2 -93 3 -87 1
-102 13 -52 43 16 10 21 18 12 18 -32 0 -78 -19 -105 -44 -15 -14 -32 -26 -36
-26 -13 0 -11 24 3 38 9 9 8 12 -5 12 -9 0 -26 -13 -37 -28 -21 -28 -23 -29
-72 -20 -32 6 -67 6 -97 -1 -25 -5 -68 -13 -96 -16 -77 -10 -145 -57 -251
-175 -91 -100 -154 -200 -154 -243 0 -10 -11 -41 -24 -67 -24 -47 -24 -52 -20
-246 3 -151 1 -224 -12 -302 -13 -82 -14 -116 -5 -165 10 -58 70 -198 166
-389 24 -49 40 -88 37 -88 -11 0 -131 92 -217 167 -129 111 -148 122 -241 148
-121 34 -183 32 -286 -6 -95 -34 -142 -63 -213 -129 -72 -67 -218 -175 -232
-172 -7 1 -35 -14 -64 -33 -47 -34 -52 -35 -68 -21 -25 22 -28 21 -41 -20 -13
-37 -6 -61 7 -26 8 20 8 20 32 1 23 -19 23 -20 5 -41 -18 -20 -88 -68 -99 -68
-3 0 -5 16 -5 36 0 30 3 34 19 29 11 -3 22 -1 26 5 4 6 -6 10 -24 10 -34 0
-46 -23 -36 -69 6 -29 3 -31 -127 -102 -73 -40 -187 -103 -253 -141 -114 -66
-122 -69 -170 -64 -27 3 -75 12 -105 20 -44 13 -116 16 -386 16 -188 0 -387 5
-460 12 -71 7 -165 13 -209 13 -74 0 -87 -4 -177 -47 -154 -74 -368 -237 -424
-325 -60 -94 -181 -239 -241 -289 -32 -27 -60 -50 -63 -53 -3 -2 1 -6 8 -8 23
-9 12 -22 -75 -84 -129 -92 -286 -221 -388 -319 -116 -112 -448 -407 -511
-455 -62 -48 -191 -110 -269 -130 -115 -28 -186 -33 -350 -23 -294 19 -666 -4
-858 -53 -89 -22 -139 -41 -362 -132 -240 -98 -266 -110 -895 -417 -429 -210
-507 -237 -747 -259 -94 -9 -107 -8 -178 15 -108 34 -200 33 -303 -5 -103 -38
-275 -75 -442 -96 -74 -9 -166 -23 -203 -31 -86 -18 -262 -86 -306 -118 -18
-14 -50 -28 -72 -31 -21 -4 -53 -17 -71 -29 -27 -18 -33 -28 -32 -57 0 -18 4
-42 8 -51 6 -13 4 -18 -6 -18 -8 0 -24 -10 -36 -23 -29 -31 -29 -81 0 -101 22
-16 22 -16 -10 -22 l-32 -6 0 -150 0 -150 25 4 c29 6 31 1 11 -21 -8 -9 -19
-33 -25 -55 -17 -63 23 -132 79 -137 50 -4 68 2 151 52 54 33 131 66 216 95
73 24 191 73 262 108 160 80 193 91 466 156 121 29 238 59 260 67 22 8 89 21
149 29 90 12 138 26 290 85 99 38 192 74 204 80 85 35 422 104 683 139 473 64
673 93 754 110 50 11 172 33 272 50 100 16 249 44 330 61 82 17 198 39 258 48
l110 17 65 -29 c36 -16 88 -46 115 -66 28 -21 75 -54 105 -74 30 -20 113 -98
185 -173 188 -199 272 -249 603 -360 137 -45 222 -57 372 -52 117 4 133 8 255
50 72 25 225 85 340 133 116 48 294 116 396 150 303 103 368 135 480 241 39
36 94 71 185 116 71 36 147 76 169 90 22 13 83 45 136 71 54 25 100 50 104 56
3 6 23 20 44 30 21 11 86 58 145 106 122 97 149 112 365 202 277 115 277 115
685 167 l268 34 52 -23 c194 -89 423 -33 647 159 45 38 127 91 207 134 73 40
174 99 224 132 51 33 94 60 97 60 7 0 39 -52 57 -91 16 -36 72 -97 94 -104 16
-5 18 -9 7 -25 -18 -30 3 -46 38 -27 24 12 32 12 56 0 16 -8 29 -22 29 -32 0
-9 4 -21 9 -26 5 -6 16 -46 25 -90 52 -242 154 -593 200 -680 17 -33 32 -63
34 -67 2 -5 -18 -8 -45 -8 -27 0 -112 -11 -189 -25 -76 -14 -211 -34 -299 -46
-88 -11 -241 -36 -340 -55 -255 -49 -285 -53 -520 -64 -147 -7 -222 -6 -250 1
-48 13 -345 130 -395 155 -28 15 -66 19 -200 22 -165 4 -165 4 -250 -28 -83
-31 -144 -65 -205 -115 -24 -20 -28 -28 -19 -42 14 -23 102 -18 165 8 l46 20
31 -28 c38 -33 39 -43 7 -111 -28 -61 -31 -102 -11 -185 13 -55 36 -99 36 -68
0 7 10 21 21 30 14 11 24 35 30 69 4 28 20 72 34 96 23 39 34 48 78 61 71 21
127 29 127 19 0 -5 -31 -26 -70 -47 -87 -47 -100 -66 -100 -138 0 -75 3 -83
62 -125 40 -30 52 -34 59 -23 12 19 11 56 -2 81 -20 37 -3 62 63 95 57 29 88
33 88 13 0 -5 -22 -28 -50 -51 -62 -53 -66 -81 -15 -135 33 -35 37 -36 85 -32
28 3 53 8 57 12 4 3 -4 20 -17 38 l-23 31 24 18 c46 36 67 35 153 -9 45 -22
99 -45 121 -51 61 -17 145 -13 208 9 71 25 152 26 496 4 266 -17 500 -15 726
6 389 36 581 71 695 128 71 35 94 80 116 222 40 263 7 538 -112 948 -29 103
-54 194 -54 203 0 17 26 33 39 24 5 -2 18 6 30 19 30 31 25 86 -9 103 -39 19
-49 63 -54 221 -3 118 -9 166 -30 243 -46 173 -98 290 -176 404 -23 33 -48 71
-57 85 -9 14 -39 41 -66 60 -168 115 -268 228 -302 342 -7 25 -22 59 -32 74
-16 24 -18 50 -18 189 1 196 21 296 91 453 13 29 24 58 24 65 0 29 31 57 64
57 17 0 37 5 44 12 9 9 12 9 12 1 0 -7 -9 -15 -21 -18 -15 -5 -17 -10 -9 -20
8 -10 0 -19 -33 -42 -35 -22 -41 -31 -31 -40 14 -14 41 -7 129 32 78 35 89 45
129 125 19 37 44 82 56 101 l22 34 -6 -30 c-12 -53 -64 -149 -105 -191 -23
-23 -58 -46 -83 -54 -24 -8 -52 -20 -63 -28 -19 -14 -19 -14 5 -8 14 3 45 9
70 13 81 12 170 125 205 260 19 72 19 192 1 263 -8 33 -13 100 -12 170 1 67
-3 121 -9 129 -6 9 -7 15 0 18 6 2 23 11 40 21 27 17 29 22 26 71 -1 30 3 58
9 67 10 11 9 14 -3 14 -9 0 -20 8 -26 17 -8 14 -12 15 -25 4 -9 -7 -16 -10
-16 -6 0 4 -9 -3 -19 -16 l-20 -24 0 105 c0 130 12 178 48 186 44 11 107 51
135 89 16 20 26 38 24 41 -11 10 -108 5 -163 -9 -33 -9 -85 -19 -116 -22 -51
-6 -59 -5 -78 16 -11 12 -21 26 -21 29 0 12 56 59 83 69 31 12 50 51 41 86 -4
16 1 29 20 47 23 21 25 26 12 43 -13 18 -14 18 -48 -2 l-36 -21 -20 27 c-17
21 -21 23 -21 8z m275 -326 c-20 -22 -81 -48 -70 -30 8 13 65 49 78 49 5 0 1
-9 -8 -19z m-346 -1158 c0 -26 0 -26 -21 -7 -20 18 -20 18 -14 -7 5 -21 2 -27
-14 -32 -27 -7 -35 7 -20 35 24 46 69 54 69 11z m73 -58 c-16 -22 -33 -32 -33
-20 0 9 34 45 43 45 4 0 0 -11 -10 -25z m-53 -45 c0 -5 -5 -10 -11 -10 -5 0
-7 5 -4 10 3 6 8 10 11 10 2 0 4 -4 4 -10z m-2840 -1200 c-70 -59 -136 -80
-197 -64 -34 9 -28 24 10 24 17 1 70 16 117 34 106 42 113 43 70 6z m3328
-1030 c-1 -18 -6 -30 -15 -30 -16 0 -17 14 -3 41 15 26 19 24 18 -11z m-5963
-794 c-11 -8 -24 -12 -28 -9 -11 7 12 23 32 23 11 0 9 -4 -4 -14z m-5619 -905
c-3 -5 -16 -11 -28 -14 -22 -6 -22 -5 -4 8 22 17 40 20 32 6z m44 -141 c0 -5
-8 -10 -17 -10 -15 0 -16 2 -3 10 19 12 20 12 20 0z"/>
<path d="M10925 2609 c-9 -27 10 -48 27 -31 9 9 9 12 -1 12 -8 0 -10 7 -6 20
3 11 2 20 -4 20 -5 0 -13 -9 -16 -21z"/>
</g>
</svg>
