<?xml version="1.0" standalone="no"?>
<!DOCTYPE svg PUBLIC "-//W3C//DTD SVG 20010904//EN"
 "http://www.w3.org/TR/2001/REC-SVG-20010904/DTD/svg10.dtd">
<svg version="1.0" xmlns="http://www.w3.org/2000/svg"
 width="1055.000000pt" height="1280.000000pt" viewBox="0 0 1055.000000 1280.000000"
 preserveAspectRatio="xMidYMid meet">
<metadata>
Created by potrace 1.15, written by Peter Selinger 2001-2017
</metadata>
<g transform="translate(0.000000,1280.000000) scale(0.100000,-0.100000)"
fill="#f44336" stroke="none">
<path d="M5719 12454 c-26 -19 -42 -24 -66 -20 -25 4 -40 -1 -63 -21 -23 -19
-42 -25 -73 -25 -49 1 -74 -18 -83 -62 -4 -24 -15 -35 -47 -50 -23 -10 -59
-32 -80 -48 -25 -20 -44 -27 -57 -23 -15 5 -18 3 -14 -9 3 -9 1 -16 -6 -16
-36 0 -216 -173 -250 -241 -16 -30 -36 -62 -46 -69 -9 -8 -28 -32 -41 -54 -22
-35 -24 -46 -18 -102 3 -35 20 -101 36 -146 65 -179 89 -248 89 -258 0 -6 -12
-16 -28 -23 -15 -7 -65 -34 -112 -62 -66 -39 -119 -83 -236 -200 -83 -82 -158
-164 -167 -181 -29 -56 -14 -95 67 -171 84 -80 114 -95 393 -202 117 -44 240
-94 275 -110 35 -16 79 -32 98 -36 49 -10 90 -33 90 -50 0 -17 -67 -95 -82
-95 -5 0 4 18 21 39 17 21 31 42 31 46 0 4 -10 -5 -22 -21 -40 -54 -123 -126
-173 -151 -290 -147 -469 -396 -452 -631 10 -146 74 -258 187 -328 33 -20 61
-37 61 -38 1 -1 3 -149 5 -331 5 -449 -4 -499 -113 -617 -79 -86 -117 -149
-170 -281 -25 -61 -49 -117 -54 -123 -5 -6 -16 -31 -24 -55 -9 -24 -45 -120
-81 -214 -37 -93 -81 -209 -100 -258 -19 -48 -34 -104 -34 -125 0 -20 -5 -53
-10 -72 -6 -19 -19 -93 -31 -165 -17 -107 -21 -188 -23 -465 -2 -184 -7 -353
-11 -375 -4 -22 -29 -76 -56 -120 -55 -91 -58 -131 -10 -141 51 -11 53 -12 42
-33 -12 -21 -5 -31 21 -31 10 0 18 -1 18 -2 3 -19 22 -848 21 -888 -1 -30 -1
-134 -1 -230 0 -96 -4 -195 -10 -220 -5 -25 -19 -156 -30 -293 -11 -136 -29
-314 -40 -395 -43 -332 -64 -686 -58 -1020 3 -212 2 -284 -8 -307 -16 -37 -18
-90 -4 -116 8 -15 7 -21 -4 -25 -18 -7 -32 -99 -18 -117 5 -7 10 -40 11 -75 0
-34 7 -75 16 -92 32 -62 19 -224 -43 -530 -11 -52 -23 -112 -26 -132 -4 -23
-13 -38 -21 -38 -32 0 -48 -47 -42 -120 3 -38 11 -79 18 -91 6 -13 24 -67 39
-120 15 -54 35 -110 44 -124 19 -30 35 -31 161 -10 142 23 135 26 135 -49 0
-71 17 -99 48 -79 14 8 16 23 13 77 -3 60 -1 69 21 90 23 20 26 33 32 131 4
60 12 118 18 128 5 11 11 74 13 141 3 77 11 148 24 196 10 41 29 111 40 154
12 44 21 95 21 114 0 57 -29 149 -77 251 l-47 96 -1 140 c-1 77 -5 151 -9 165
-10 35 37 211 129 488 42 125 89 272 105 327 15 55 44 141 63 191 95 246 99
278 101 719 l2 380 26 80 c27 81 142 489 151 535 3 14 24 113 46 220 23 107
45 207 48 223 7 36 17 41 46 22 27 -17 37 -12 37 23 0 21 4 23 24 18 14 -3 27
-2 31 3 3 5 -7 52 -23 103 -38 125 -35 193 12 363 20 72 50 207 67 300 l30
170 42 37 c23 21 46 36 51 35 9 -3 67 -111 186 -347 41 -80 91 -173 112 -208
21 -34 38 -64 38 -66 0 -2 23 -43 52 -92 52 -90 54 -97 61 -234 0 -14 -3 -62
-7 -107 l-8 -82 36 -15 c29 -12 42 -13 62 -4 15 7 28 8 33 2 5 -5 39 -101 76
-214 57 -171 145 -414 198 -545 42 -104 158 -316 223 -405 41 -58 84 -121 94
-140 25 -49 93 -246 125 -360 47 -172 86 -273 170 -440 46 -91 92 -181 102
-200 29 -53 168 -402 203 -510 38 -119 60 -211 60 -255 0 -19 7 -53 16 -75 12
-31 14 -43 5 -54 -13 -16 -6 -57 17 -97 13 -24 14 -58 3 -282 -8 -176 -17
-274 -29 -318 -16 -59 -21 -66 -61 -87 -51 -27 -67 -45 -77 -87 -3 -16 -13
-38 -21 -47 -18 -20 -15 -43 22 -187 29 -114 57 -167 105 -201 30 -22 38 -22
153 -16 67 4 139 10 160 13 l37 6 0 -70 c0 -71 10 -93 41 -93 24 0 29 20 29
113 0 51 7 105 19 146 74 249 98 342 141 554 38 182 38 281 1 422 -20 74 -65
197 -81 220 -4 6 -10 27 -14 48 -4 20 -18 59 -31 85 -12 26 -29 67 -36 92 -6
25 -21 53 -31 62 -13 11 -23 40 -29 80 -31 202 -81 591 -89 698 -22 269 -41
351 -133 580 -80 201 -141 320 -237 464 -199 299 -265 483 -345 961 -9 55 -23
132 -30 170 -23 118 -29 195 -16 195 6 0 11 7 11 15 0 8 6 15 14 15 10 0 14 9
13 27 -1 20 3 28 15 28 32 0 15 43 -41 107 -42 47 -75 122 -91 208 -10 52 -35
189 -84 475 -20 110 -45 241 -56 290 -12 50 -21 110 -21 134 -1 29 -19 89 -56
180 -52 129 -68 175 -114 336 -27 93 -48 147 -64 165 -7 8 -18 40 -25 70 -19
86 -48 167 -86 241 -103 205 -107 287 -29 614 9 39 21 103 26 142 14 110 80
297 179 503 51 106 100 226 115 280 15 52 33 111 40 130 8 19 21 62 30 95 10
33 21 74 26 90 6 17 14 87 19 157 11 147 18 181 35 174 7 -2 18 1 24 7 8 8 16
6 31 -8 20 -18 20 -18 22 46 1 35 3 73 4 84 1 11 3 34 3 50 l1 30 21 -25 20
-25 -6 40 c-3 22 -2 52 3 65 l10 25 11 -28 c6 -16 11 -33 11 -38 0 -6 7 -17
15 -25 13 -14 15 -13 15 4 0 30 27 48 51 34 16 -10 19 -9 19 6 0 10 -5 23 -11
29 -6 6 -9 17 -7 24 3 8 16 -3 32 -28 32 -48 86 -93 112 -93 14 0 16 7 11 51
-6 51 -6 51 13 34 23 -21 24 -17 9 22 -6 15 -19 58 -30 94 -30 108 -116 278
-166 327 -28 28 -42 57 -58 122 -14 60 -86 222 -187 425 -22 44 -74 130 -114
191 -41 61 -85 131 -97 155 -37 69 -162 268 -210 334 -24 33 -49 72 -55 88 -6
15 -16 27 -22 27 -19 0 -189 172 -188 189 4 50 -4 90 -22 109 -17 18 -31 21
-78 20 -36 -1 -69 5 -89 15 -41 22 -43 22 -84 -9z m-524 -1533 c3 -5 1 -12 -5
-16 -5 -3 -10 1 -10 9 0 18 6 21 15 7z m-125 -925 c0 -2 -8 -10 -17 -17 -16
-13 -17 -12 -4 4 13 16 21 21 21 13z"/>
<path d="M6230 12101 c0 -5 5 -13 10 -16 6 -3 10 -2 10 4 0 5 -4 13 -10 16 -5
3 -10 2 -10 -4z"/>
</g>
</svg>
