<?xml version="1.0" standalone="no"?>
<!DOCTYPE svg PUBLIC "-//W3C//DTD SVG 20010904//EN"
 "http://www.w3.org/TR/2001/REC-SVG-20010904/DTD/svg10.dtd">
<svg version="1.0" xmlns="http://www.w3.org/2000/svg"
 width="792.000000pt" height="1280.000000pt" viewBox="0 0 792.000000 1280.000000"
 preserveAspectRatio="xMidYMid meet">
<metadata>
Created by potrace 1.15, written by Peter Selinger 2001-2017
</metadata>
<g transform="translate(0.000000,1280.000000) scale(0.100000,-0.100000)"
fill="#f44336" stroke="none">
<path d="M4073 12526 c-84 -16 -150 -51 -178 -96 -11 -17 -36 -40 -56 -50 -76
-40 -126 -127 -157 -275 -27 -126 -42 -285 -42 -436 0 -180 -46 -479 -94 -617
-8 -22 -27 -65 -42 -95 -24 -50 -30 -55 -53 -52 -97 15 -106 14 -156 -13 -37
-20 -63 -46 -102 -102 -78 -113 -131 -224 -143 -302 -12 -78 -7 -123 26 -228
12 -41 33 -145 46 -230 20 -132 23 -192 22 -405 l-1 -250 -42 -120 c-71 -203
-65 -292 25 -416 98 -134 156 -186 195 -174 33 11 237 217 244 248 4 15 10 27
14 27 10 0 71 -127 97 -204 55 -159 45 -208 -62 -327 -42 -46 -90 -105 -106
-131 -16 -26 -35 -45 -42 -42 -6 2 -21 -6 -33 -18 -41 -45 -185 -253 -240
-347 -31 -53 -91 -152 -134 -221 -131 -213 -175 -314 -229 -533 -25 -98 -36
-126 -57 -143 -24 -20 -24 -22 -7 -32 16 -9 16 -14 6 -50 -7 -21 -12 -47 -12
-57 0 -20 96 -126 105 -116 3 3 36 13 73 21 56 13 67 19 73 40 4 14 8 18 8 10
19 -221 39 -348 92 -570 39 -160 75 -373 119 -690 11 -85 39 -263 60 -395 48
-294 59 -396 66 -640 6 -168 4 -203 -14 -300 -53 -281 -72 -607 -48 -835 22
-203 83 -514 153 -773 54 -201 55 -208 37 -222 -10 -8 -25 -12 -31 -10 -8 3
-13 -4 -13 -18 0 -39 12 -66 30 -72 10 -3 20 -16 23 -28 3 -12 19 -76 37 -142
31 -118 31 -121 15 -172 -12 -39 -16 -85 -15 -175 2 -68 -1 -161 -5 -207 -5
-56 -3 -112 5 -165 l13 -82 -73 -254 c-40 -140 -75 -260 -77 -267 -6 -14 31
-35 49 -28 7 3 35 84 63 183 47 166 50 174 57 137 61 -342 61 -339 43 -423
-17 -85 -14 -104 21 -142 18 -20 25 -45 34 -120 13 -111 26 -135 85 -161 186
-82 448 -97 471 -26 4 12 8 92 8 177 1 127 4 161 19 189 30 60 19 116 -56 269
-53 108 -69 167 -65 242 1 30 -4 92 -12 138 -13 81 -13 85 11 160 19 57 30 78
45 81 32 6 42 20 54 78 14 63 3 102 -27 100 -15 -2 -18 6 -17 48 1 64 21 135
38 135 25 0 42 35 54 107 9 53 9 79 1 96 -16 36 44 284 76 313 12 12 30 45 38
74 14 47 14 55 1 75 -14 21 -10 37 51 206 247 683 333 956 384 1211 26 136 35
165 68 215 20 32 45 79 54 104 10 25 36 176 59 335 22 159 50 334 61 389 12
55 25 163 29 240 4 77 20 264 34 415 14 151 30 311 34 355 l7 80 35 -1 c19 0
57 -1 83 -2 l48 -2 -20 -26 c-22 -28 -28 -69 -11 -79 21 -13 211 160 230 210
5 14 10 47 10 72 0 25 8 76 17 114 16 68 16 72 -10 217 -71 393 -88 607 -93
1197 -6 534 -9 576 -75 865 -43 184 -58 338 -59 567 l0 112 39 61 c93 144 105
296 31 416 l-23 36 22 72 c28 97 42 200 43 318 0 89 -2 103 -31 165 -18 37
-52 88 -76 113 -45 46 -54 66 -100 210 -15 47 -48 130 -73 185 l-46 100 -7
190 c-9 228 -25 336 -78 515 -65 222 -152 423 -244 560 -29 44 -175 190 -190
190 -4 0 -38 20 -75 44 -115 74 -297 108 -439 82z m1162 -6008 c9 -40 20 -116
23 -168 5 -93 4 -95 -15 -78 -10 10 -30 19 -44 21 -27 4 -27 1 -31 164 -3 104
-2 113 17 122 11 5 23 10 26 10 3 1 14 -32 24 -71z m-40 -301 c4 -13 5 -29 3
-37 -2 -8 5 -16 15 -18 11 -2 27 -12 38 -23 10 -10 28 -19 39 -19 11 0 20 -4
20 -10 0 -6 -26 -10 -58 -10 -33 0 -63 -5 -71 -12 -10 -11 -12 3 -9 69 3 82
12 105 23 60z m-985 -545 c37 -399 60 -819 60 -1107 l0 -210 -59 -170 c-33
-93 -74 -208 -91 -255 -18 -47 -50 -137 -71 -200 -29 -89 -40 -110 -46 -95 -4
11 -8 133 -8 270 1 230 2 257 24 335 36 134 40 156 51 310 6 80 18 192 27 250
13 83 16 201 18 561 2 402 13 658 32 769 6 31 8 26 19 -45 8 -44 27 -230 44
-413z"/>
</g>
</svg>
