<?xml version="1.0" standalone="no"?>
<!DOCTYPE svg PUBLIC "-//W3C//DTD SVG 20010904//EN"
 "http://www.w3.org/TR/2001/REC-SVG-20010904/DTD/svg10.dtd">
<svg version="1.0" xmlns="http://www.w3.org/2000/svg"
 width="1280.000000pt" height="1024.000000pt" viewBox="0 0 1280.000000 1024.000000"
 preserveAspectRatio="xMidYMid meet">
<metadata>
Created by potrace 1.15, written by Peter Selinger 2001-2017
</metadata>
<g transform="translate(0.000000,1024.000000) scale(0.100000,-0.100000)"
fill="#f44336" stroke="none">
<path d="M6080 9801 c-132 -27 -211 -53 -315 -107 -173 -89 -307 -199 -361
-295 -33 -58 -49 -69 -104 -69 -48 0 -56 -4 -222 -114 -89 -59 -119 -86 -111
-99 3 -6 1 -7 -4 -4 -6 4 -23 -10 -39 -31 -18 -23 -21 -31 -9 -22 16 13 15 10
-4 -17 -12 -18 -26 -33 -31 -33 -9 0 -22 -31 -96 -229 -87 -233 -130 -418
-138 -598 -3 -67 -2 -82 3 -48 8 48 8 48 9 -27 1 -49 6 -78 13 -78 7 0 9 -28
6 -87 -3 -49 -3 -77 0 -63 6 32 18 45 20 22 0 -9 5 -38 10 -64 6 -26 7 -50 3
-55 -4 -4 -4 -19 1 -33 7 -25 7 -25 8 4 1 42 12 26 16 -25 6 -72 46 -241 68
-284 l20 -40 -22 19 c-11 10 -35 41 -52 67 -17 27 -33 49 -36 49 -11 0 77
-129 115 -169 7 -7 11 -20 8 -28 -3 -8 -2 -12 3 -9 5 4 12 -15 15 -41 3 -27 8
-71 11 -100 6 -49 5 -53 -32 -94 -67 -76 -70 -78 -148 -73 -106 6 -198 15
-215 21 -16 6 -38 10 -87 17 -17 2 -37 7 -43 11 -6 4 -22 -1 -37 -10 -14 -9
-22 -12 -19 -6 5 7 -1 11 -14 11 -18 0 -19 -3 -10 -20 7 -14 7 -20 0 -20 -5 0
-10 -4 -10 -10 0 -5 12 -10 28 -10 l27 -1 -24 -13 -24 -13 29 -10 c26 -9 154
-99 154 -108 0 -5 -82 5 -92 11 -4 3 -8 3 -8 0 0 -3 23 -17 50 -31 28 -14 50
-27 50 -29 0 -8 -61 13 -76 24 -7 7 -17 9 -22 6 -5 -3 -21 2 -37 10 -57 29
-33 6 37 -37 40 -24 70 -48 68 -52 -18 -31 145 -48 265 -27 44 8 57 5 105 -18
30 -15 75 -33 100 -42 38 -13 45 -19 44 -40 -2 -29 13 -42 39 -34 15 5 22 -6
18 -29 -1 -5 3 -6 8 -3 5 3 15 -2 22 -11 12 -14 12 -16 -1 -8 -8 5 -4 -5 10
-22 14 -18 30 -32 36 -32 6 -1 22 -9 35 -19 13 -10 34 -19 47 -20 29 -1 84
-33 90 -51 3 -10 0 -11 -18 -1 l-22 12 18 -25 c10 -13 32 -29 47 -35 16 -6 27
-16 25 -23 -4 -13 -77 -38 -95 -32 -24 8 -23 -18 2 -29 24 -11 25 -13 8 -19
-14 -6 -11 -8 12 -9 26 0 28 -2 12 -11 -42 -24 -79 -28 -115 -13 -20 8 -42 12
-49 9 -8 -2 -31 7 -52 21 -47 30 -117 43 -107 19 3 -8 1 -15 -5 -15 -18 0 175
-188 204 -199 16 -6 40 -11 54 -11 15 0 24 -3 20 -6 -3 -3 -73 -5 -155 -5
-229 3 -408 -32 -512 -99 -103 -66 -253 -242 -590 -691 -134 -178 -268 -353
-299 -389 -31 -35 -196 -204 -367 -376 -178 -178 -368 -380 -444 -470 -122
-147 -169 -207 -367 -474 -38 -52 -97 -127 -129 -167 -33 -40 -106 -147 -164
-239 l-104 -166 -59 4 -59 4 -30 -40 c-71 -98 -177 -323 -178 -378 0 -21 9
-34 40 -54 22 -15 40 -28 40 -29 0 -2 -20 -41 -45 -88 -98 -184 -121 -314 -72
-420 14 -30 47 -88 74 -128 28 -41 88 -135 134 -209 244 -395 813 -1040 1342
-1522 l118 -108 596 0 595 0 -81 86 c-231 244 -335 418 -876 1464 -163 317
-167 323 -354 594 -23 32 -41 63 -41 69 0 6 20 7 53 3 52 -6 67 -1 197 64 19
9 25 47 10 66 -7 7 -25 14 -41 14 -15 0 -30 4 -33 8 -6 10 46 36 93 47 45 10
216 174 281 270 27 40 93 112 151 165 123 114 282 286 432 471 l112 136 58
-216 c106 -398 282 -922 427 -1276 32 -77 83 -203 115 -280 132 -321 384 -979
409 -1070 11 -41 26 -68 46 -86 27 -23 29 -28 20 -60 -6 -18 -10 -74 -10 -124
0 -49 -5 -119 -10 -155 -11 -77 -24 -91 -145 -150 l-80 -40 1912 0 c1812 0
1912 1 1917 18 12 37 40 260 41 317 0 103 -25 296 -44 341 -12 25 -37 55 -64
75 -27 21 -47 44 -51 61 -7 37 -58 91 -104 112 -37 17 -40 21 -45 69 -2 29 -1
79 4 112 16 113 186 690 280 950 118 325 268 785 284 866 8 45 15 109 15 144
0 80 -24 220 -50 284 -17 45 -18 50 -3 63 48 40 67 159 39 252 -23 75 -57 111
-149 155 -90 43 -77 26 -193 238 -99 179 -175 303 -226 366 -47 58 -63 90 -88
165 -50 155 -187 407 -288 531 -50 59 -161 145 -239 182 -65 31 -273 89 -320
89 -18 0 -54 30 -136 113 -69 68 -147 135 -202 172 -180 119 -193 131 -204
188 -13 65 -20 577 -9 577 5 0 4 9 -2 19 -15 29 -12 35 8 20 14 -11 13 -9 -2
9 -27 31 -13 38 28 14 33 -20 35 -20 24 -2 -7 10 -22 24 -35 31 -20 11 -33 39
-17 39 9 0 65 -39 98 -69 16 -14 25 -19 21 -11 -11 17 -14 50 -6 50 23 -2 114
-113 103 -126 -4 -4 -2 -5 3 -2 14 8 76 -27 67 -37 -4 -5 -1 -5 5 -1 7 4 23 0
35 -8 28 -20 44 -21 28 -1 -17 20 -8 19 34 -6 53 -31 43 -16 -13 20 -43 28
-108 87 -72 66 11 -6 13 -4 8 8 -6 15 3 22 26 18 13 -2 7 17 -8 23 -8 3 -15
13 -15 21 0 9 5 13 10 10 6 -4 30 -8 55 -11 37 -3 43 -1 39 11 -4 8 -10 15
-14 15 -4 0 -24 14 -45 30 -38 30 -40 39 -4 20 29 -16 23 -6 -23 40 l-43 42
32 -6 c17 -3 51 -14 75 -25 41 -18 108 -33 108 -23 0 3 -8 11 -17 18 -33 25 4
14 43 -12 24 -17 33 -20 24 -9 -14 17 -13 18 20 11 19 -4 40 -8 46 -10 6 -1
24 -15 40 -31 16 -17 41 -40 55 -53 l26 -22 -2 32 c-3 47 4 65 28 72 22 5 22
5 2 20 -19 15 -19 15 4 11 13 -2 31 -11 41 -20 22 -20 47 -21 31 -1 -10 12 -6
14 24 14 20 0 39 2 42 5 3 3 -13 6 -34 5 -50 0 -104 11 -122 26 -12 9 -13 8
-6 -4 6 -11 3 -11 -11 2 -19 17 -31 68 -16 68 4 0 15 -7 25 -14 19 -15 57 -10
57 6 0 6 11 8 24 6 14 -3 30 -2 37 2 12 8 -5 13 -88 25 -48 7 -79 27 -69 43 4
7 17 12 29 12 18 0 19 2 7 10 -22 14 33 11 93 -6 43 -12 48 -12 43 2 -3 8 -2
12 4 9 15 -9 214 -7 218 3 1 5 22 6 45 2 69 -10 177 2 177 20 0 21 50 -8 92
-53 26 -28 50 -48 54 -45 3 4 -15 25 -40 48 -25 24 -46 49 -46 57 0 8 5 11 10
8 6 -3 10 0 10 8 0 17 -24 29 -43 21 -7 -2 -22 6 -33 18 l-19 23 23 -19 c12
-11 25 -17 28 -13 3 3 -5 11 -18 18 -23 13 -29 15 -49 18 -6 0 -9 6 -7 13 4
11 -48 68 -63 68 -3 0 -19 12 -35 26 l-29 26 30 -6 c64 -13 101 -18 132 -17
24 1 45 -10 82 -42 87 -73 177 -142 163 -125 -8 10 -9 19 -3 22 15 10 5 41
-13 39 -10 0 -15 2 -12 5 3 3 1 11 -5 19 -16 18 4 17 42 -3 48 -24 45 -9 -3
20 -47 28 -45 35 4 10 37 -19 88 -30 73 -15 -6 5 -60 35 -120 65 -61 30 -116
59 -124 65 -10 6 34 8 125 5 158 -4 198 -8 268 -29 27 -8 61 -15 75 -15 l26 1
-26 14 c-15 8 -29 21 -33 30 -3 8 -15 15 -26 15 -12 0 -19 4 -16 8 6 10 -85
52 -112 52 -25 0 -46 16 -38 29 4 6 0 11 -8 11 -9 0 -16 5 -16 11 0 6 9 8 23
4 18 -6 20 -5 10 6 -7 7 -50 27 -95 45 -46 18 -78 33 -73 33 22 2 138 -39 154
-53 19 -18 112 -58 118 -52 3 3 -19 17 -49 32 -29 15 -48 29 -41 31 7 2 20 0
30 -6 12 -6 25 -6 38 2 18 9 18 9 7 -5 -10 -13 -10 -18 -1 -24 8 -5 9 -3 4 6
-6 10 -4 12 9 7 11 -4 15 -3 10 4 -4 8 1 9 17 4 13 -4 22 -5 19 -2 -12 12 -81
57 -89 57 -5 0 -15 7 -22 17 -11 13 -11 17 -1 20 17 6 15 23 -4 23 -8 0 -12 5
-9 10 3 6 -4 14 -17 19 -20 9 -18 10 17 10 22 0 49 -7 60 -16 16 -13 17 -15 3
-10 -10 4 -18 2 -18 -3 0 -6 15 -10 33 -10 17 0 52 -9 76 -20 24 -11 48 -20
55 -20 6 0 -13 11 -41 25 -29 13 -53 26 -53 29 0 3 16 2 37 -1 26 -4 34 -3 29
5 -4 7 -15 12 -25 12 -23 0 -81 29 -81 40 0 5 6 11 13 13 6 3 -10 6 -37 6 -30
1 -56 7 -67 17 -9 8 -43 19 -75 24 -72 10 -146 36 -156 54 -4 8 -28 17 -53 20
-25 4 -45 11 -45 16 0 4 -12 11 -27 15 -33 8 -117 55 -110 61 5 5 -2 12 -97
113 l-49 52 77 -41 c43 -23 79 -40 81 -38 2 2 -25 19 -60 37 -59 31 -121 81
-100 81 5 0 -1 7 -13 16 -12 8 -22 26 -22 39 0 13 -10 33 -22 45 -12 11 -18
20 -13 20 5 0 0 6 -10 14 -10 7 -19 20 -21 29 -1 8 -20 41 -41 74 -44 64 -142
254 -153 293 -3 14 -13 25 -21 25 -8 0 -14 9 -15 20 -2 41 -4 46 -16 39 -7 -4
-8 -3 -4 4 4 6 -6 30 -21 53 -16 24 -27 55 -27 75 0 22 -5 34 -14 34 -7 0 -12
6 -9 13 8 21 -52 123 -110 187 -30 33 -50 60 -45 60 5 0 52 -46 103 -102 118
-128 128 -138 135 -138 4 0 -23 31 -59 69 -36 39 -76 84 -89 101 -13 18 -61
63 -108 101 -47 38 -121 101 -165 140 -44 39 -121 104 -171 145 -51 40 -101
84 -111 98 -31 39 -183 168 -277 234 -150 107 -259 154 -476 203 -135 31 -387
36 -520 10z m870 -157 c0 -2 -13 2 -30 11 -16 9 -30 18 -30 21 0 2 14 -2 30
-11 17 -9 30 -18 30 -21z m76 -45 c8 -13 -21 1 -51 26 -19 15 -18 15 12 1 17
-9 35 -21 39 -27z m-2319 -1191 c-3 -7 -5 -2 -5 12 0 14 2 19 5 13 2 -7 2 -19
0 -25z m-10 -50 c-3 -7 -5 -2 -5 12 0 14 2 19 5 13 2 -7 2 -19 0 -25z m-20
-160 c-3 -7 -5 -2 -5 12 0 14 2 19 5 13 2 -7 2 -19 0 -25z m4033 -798 c18 -12
2 -12 -25 0 -13 6 -15 9 -5 9 8 0 22 -4 30 -9z m238 -37 c23 -9 41 -17 39 -19
-5 -5 -137 36 -137 43 0 7 43 -4 98 -24z m68 -8 c10 -8 15 -14 9 -14 -5 0 -19
6 -29 14 -11 8 -15 15 -10 15 6 0 19 -7 30 -15z m-415 -406 c35 -29 64 -55 63
-58 -1 -14 -34 -11 -51 6 -21 20 -79 31 -68 13 7 -12 -37 -9 -81 5 -12 4 -10
1 6 -9 15 -9 19 -15 10 -15 -16 0 -50 22 -50 33 0 4 5 4 10 1 6 -3 10 -1 10 5
0 6 5 8 11 4 6 -3 36 -7 66 -8 l56 -2 -37 31 c-20 16 -36 33 -36 38 0 18 32 3
91 -44z m-645 -40 c3 -6 2 -15 -3 -20 -5 -5 -14 0 -21 11 -10 17 -10 20 2 20
8 0 18 -5 22 -11z m444 -10 c27 -15 -32 -9 -65 6 l-30 14 40 -6 c22 -3 47 -9
55 -14z m-467 -89 c5 0 3 8 -4 17 -13 17 -13 17 11 2 14 -9 23 -20 20 -25 -8
-15 -44 -5 -65 18 l-20 21 25 -17 c13 -9 28 -16 33 -16z m-3112 -77 c13 -15
12 -15 -11 -3 -34 17 -36 20 -18 20 9 0 22 -7 29 -17z m2864 -43 c3 -5 2 -10
-4 -10 -5 0 -13 5 -16 10 -3 6 -2 10 4 10 5 0 13 -4 16 -10z m-245 -160 c6
-11 9 -20 7 -20 -2 0 -12 9 -22 20 -10 11 -13 20 -7 20 6 0 16 -9 22 -20z
m-1550 -264 c0 -8 -4 -18 -10 -21 -5 -3 -10 3 -10 14 0 12 5 21 10 21 6 0 10
-6 10 -14z m-413 -63 c7 -18 15 -30 42 -59 11 -12 12 -20 4 -33 -8 -12 -26
-16 -82 -15 -39 0 -71 -3 -71 -7 0 -4 19 -14 43 -22 33 -12 37 -16 17 -16 -20
-1 -22 -3 -10 -11 8 -5 12 -10 8 -11 -5 -1 -12 -3 -18 -4 -5 -1 -15 -3 -22 -4
-6 0 -3 -8 8 -16 14 -11 15 -14 4 -14 -26 0 -226 47 -205 48 11 1 34 10 50 21
17 11 38 17 47 14 22 -7 61 14 52 27 -7 12 24 49 41 49 7 0 25 16 39 35 30 39
43 43 53 18z m310 -80 c5 -12 7 -12 15 -1 8 10 9 10 6 -2 -3 -8 -19 -20 -37
-27 -18 -8 -30 -9 -27 -4 4 5 2 12 -4 16 -5 3 -10 12 -10 19 0 18 50 17 57 -1z
m-64 -32 c9 -9 9 -14 -3 -21 -13 -8 -39 12 -40 32 0 10 29 3 43 -11z m-493
-31 c-8 -5 -19 -10 -25 -10 -5 0 -3 5 5 10 8 5 20 10 25 10 6 0 3 -5 -5 -10z
m250 -30 c0 -5 -8 -10 -17 -10 -15 0 -16 2 -3 10 19 12 20 12 20 0z m-30 -35
c-10 -12 -9 -15 5 -15 10 0 16 -3 12 -6 -3 -3 -15 -3 -27 1 -20 6 -21 7 -3 21
24 18 28 17 13 -1z m90 -30 c-7 -8 -17 -15 -23 -15 -6 0 -2 7 9 15 25 19 30
19 14 0z"/>
<path d="M7970 8751 c0 -5 5 -13 10 -16 6 -3 10 -2 10 4 0 5 -4 13 -10 16 -5
3 -10 2 -10 -4z"/>
<path d="M4663 7795 c0 -33 2 -45 4 -27 2 18 2 45 0 60 -2 15 -4 0 -4 -33z"/>
<path d="M8530 7730 c8 -5 20 -10 25 -10 6 0 3 5 -5 10 -8 5 -19 10 -25 10 -5
0 -3 -5 5 -10z"/>
<path d="M4671 7704 c1 -16 5 -40 9 -54 6 -17 7 -9 3 25 -6 56 -14 74 -12 29z"/>
<path d="M8607 7719 c7 -7 15 -10 18 -7 3 3 -2 9 -12 12 -14 6 -15 5 -6 -5z"/>
<path d="M8670 7656 c0 -2 7 -7 16 -10 8 -3 12 -2 9 4 -6 10 -25 14 -25 6z"/>
<path d="M8740 7626 c0 -2 7 -7 16 -10 8 -3 12 -2 9 4 -6 10 -25 14 -25 6z"/>
<path d="M8789 7596 c6 -7 26 -16 44 -19 17 -3 41 -9 52 -13 14 -5 17 -4 10 4
-5 5 -34 17 -64 26 -42 12 -51 13 -42 2z"/>
<path d="M9018 7523 c7 -3 16 -2 19 1 4 3 -2 6 -13 5 -11 0 -14 -3 -6 -6z"/>
<path d="M9048 7423 c7 -3 16 -2 19 1 4 3 -2 6 -13 5 -11 0 -14 -3 -6 -6z"/>
<path d="M9158 7303 c6 -2 18 -2 25 0 6 3 1 5 -13 5 -14 0 -19 -2 -12 -5z"/>
<path d="M9120 7225 c0 -7 72 -36 77 -31 3 3 -9 12 -26 20 -30 16 -51 20 -51
11z"/>
<path d="M4310 6866 c0 -2 7 -7 16 -10 8 -3 12 -2 9 4 -6 10 -25 14 -25 6z"/>
<path d="M8267 6809 c7 -7 15 -10 18 -7 3 3 -2 9 -12 12 -14 6 -15 5 -6 -5z"/>
<path d="M4889 6573 c-13 -16 -12 -17 4 -4 9 7 17 15 17 17 0 8 -8 3 -21 -13z"/>
<path d="M7838 6523 c7 -3 16 -2 19 1 4 3 -2 6 -13 5 -11 0 -14 -3 -6 -6z"/>
<path d="M7665 6430 c3 -5 8 -10 11 -10 2 0 4 5 4 10 0 6 -5 10 -11 10 -5 0
-7 -4 -4 -10z"/>
<path d="M7570 6366 c0 -2 7 -7 16 -10 8 -3 12 -2 9 4 -6 10 -25 14 -25 6z"/>
</g>
</svg>
