<?xml version="1.0" standalone="no"?>
<!DOCTYPE svg PUBLIC "-//W3C//DTD SVG 20010904//EN"
 "http://www.w3.org/TR/2001/REC-SVG-20010904/DTD/svg10.dtd">
<svg version="1.0" xmlns="http://www.w3.org/2000/svg"
 width="477.000000pt" height="1280.000000pt" viewBox="0 0 477.000000 1280.000000"
 preserveAspectRatio="xMidYMid meet">
<metadata>
Created by potrace 1.15, written by Peter Selinger 2001-2017
</metadata>
<g transform="translate(0.000000,1280.000000) scale(0.100000,-0.100000)"
fill="#f44336" stroke="none">
<path d="M2713 12770 c-33 -15 -71 -42 -83 -58 -12 -16 -43 -40 -68 -52 -47
-23 -122 -86 -122 -103 0 -6 5 -5 13 0 6 6 21 13 32 17 19 7 19 6 3 -10 -18
-18 -35 -22 -105 -23 -29 -1 -51 -9 -73 -27 -17 -15 -29 -29 -26 -31 6 -6 -49
-53 -66 -58 -40 -10 -57 -18 -53 -26 3 -4 13 -5 23 -2 13 5 14 3 6 -6 -14 -15
-53 5 -56 29 -2 27 -4 35 -18 63 -16 33 -6 46 21 28 12 -7 23 -10 26 -7 10 9
-80 46 -113 46 -40 0 -44 -5 -34 -41 5 -16 5 -29 0 -29 -10 0 -24 19 -26 35 0
6 -2 16 -2 23 -2 14 -32 17 -32 2 0 -5 5 -10 10 -10 6 0 10 -5 10 -10 0 -7 -6
-7 -20 0 -11 6 -20 7 -20 3 1 -15 25 -52 35 -52 6 -1 10 -4 10 -8 0 -5 4 -13
8 -19 4 -8 -5 -14 -26 -17 -40 -6 -58 14 -50 56 5 22 3 28 -6 23 -7 -5 -10
-14 -7 -22 7 -18 -18 -18 -33 -1 -13 16 4 37 31 37 10 0 18 5 18 11 0 14 -37
3 -71 -21 -19 -13 -42 -18 -85 -17 -44 1 -68 -4 -94 -20 -19 -11 -50 -24 -67
-28 -21 -4 -55 -29 -96 -69 -39 -40 -74 -66 -94 -70 -40 -9 -53 -44 -53 -138
0 -67 -1 -69 -31 -86 -86 -48 -121 -75 -153 -124 -20 -29 -36 -60 -36 -68 1
-8 7 -1 14 15 16 37 82 97 137 125 46 24 56 22 39 -10 -9 -17 -9 -21 0 -15 6
4 15 17 20 30 5 13 33 40 61 59 55 37 75 40 45 7 -12 -14 -14 -20 -5 -23 8 -3
4 -12 -11 -26 -19 -18 -21 -22 -7 -22 22 0 24 -55 1 -64 -8 -3 -13 -10 -10
-14 3 -5 -6 -7 -20 -4 -24 4 -29 27 -6 27 5 0 14 5 19 10 4 6 4 7 -1 3 -5 -4
-16 -3 -26 2 -13 7 -20 4 -29 -16 -6 -14 -11 -32 -11 -40 0 -48 -72 -154 -105
-154 -12 0 -3 49 20 104 l24 59 -30 -34 c-32 -37 -62 -89 -74 -129 -4 -14 -18
-37 -31 -53 l-23 -27 -4 52 c-2 29 -4 -2 -5 -70 -2 -107 -5 -129 -26 -170 -31
-62 -54 -136 -61 -197 -5 -47 -4 -46 18 25 20 65 55 146 57 129 0 -3 -14 -45
-30 -94 -17 -49 -30 -96 -29 -104 0 -9 4 -5 9 9 15 49 50 121 65 136 8 9 15
23 15 32 0 9 15 33 33 53 l32 37 2 -42 c2 -29 0 -37 -7 -26 -13 20 -13 8 1
-27 6 -15 15 -93 20 -173 8 -142 8 -145 -16 -199 -14 -30 -23 -56 -20 -59 2
-3 16 19 29 49 19 39 27 49 32 36 3 -9 1 -31 -5 -48 -6 -18 -9 -34 -7 -37 3
-2 8 7 12 22 3 14 11 26 16 26 7 0 9 -26 5 -72 -9 -135 21 -247 83 -303 12
-11 4 7 -19 41 -38 54 -43 68 -48 136 -4 47 -2 82 5 94 9 14 12 15 12 4 0 -8
9 -26 20 -40 l20 -25 -10 30 -10 30 20 -25 c11 -14 27 -50 36 -80 8 -30 33
-91 54 -136 21 -45 44 -100 50 -124 10 -37 56 -120 66 -120 2 0 -9 24 -25 53
-26 47 -88 274 -92 337 -5 73 1 120 17 120 8 0 12 5 9 10 -3 6 -2 10 2 10 5 0
8 -42 8 -92 0 -80 4 -101 27 -150 32 -68 44 -77 21 -14 -9 25 -13 51 -9 62 6
16 12 11 33 -31 14 -27 46 -72 72 -100 65 -69 101 -114 101 -128 0 -7 -28 18
-63 54 -68 72 -58 54 15 -28 26 -28 50 -63 54 -78 5 -19 9 -23 15 -14 4 8 3
19 -3 26 -22 27 2 24 28 -3 l27 -29 -19 35 c-10 19 -19 40 -19 46 0 6 -6 19
-14 28 -8 10 -17 58 -22 124 -4 59 -10 118 -13 132 -3 14 3 -2 14 -35 11 -33
20 -66 20 -72 0 -7 5 -13 10 -13 13 0 13 3 -5 75 -22 91 -20 114 12 126 26 10
42 0 43 -26 1 -41 43 -292 51 -304 8 -12 9 -10 4 9 -13 54 -28 237 -20 256 6
15 10 9 21 -31 l13 -50 -5 70 c-6 63 -5 68 10 56 9 -7 16 -22 16 -32 0 -11 4
-19 9 -19 6 0 13 -20 17 -45 3 -25 9 -43 12 -41 10 11 3 72 -13 110 -19 45
-13 55 47 79 34 14 38 14 70 -8 31 -21 36 -32 52 -105 10 -45 21 -120 26 -165
10 -98 28 -162 46 -169 17 -7 18 8 2 37 -12 23 -42 287 -33 295 10 10 35 -22
47 -59 6 -22 14 -36 17 -33 3 3 11 -23 17 -58 8 -46 12 -53 12 -28 1 19 -3 55
-8 80 -4 25 -6 47 -4 49 2 2 14 -4 26 -15 13 -10 9 -3 -8 16 -17 19 -34 43
-37 53 -6 15 -3 16 12 7 27 -14 131 -110 129 -118 -2 -4 10 -26 26 -50 26 -38
28 -48 23 -100 -8 -77 -32 -153 -58 -186 -12 -15 -45 -39 -74 -52 -42 -20 -58
-35 -79 -74 -15 -27 -45 -72 -67 -100 -54 -69 -279 -299 -413 -423 -96 -90
-108 -98 -102 -72 12 51 56 134 90 170 19 19 28 35 21 35 -20 0 -236 -229
-283 -299 -54 -82 -83 -174 -83 -271 0 -104 33 -195 107 -295 12 -16 25 -46
29 -65 4 -19 16 -49 26 -66 12 -19 24 -74 34 -145 8 -63 21 -161 30 -219 21
-148 19 -292 -10 -625 -38 -446 -36 -433 -86 -477 -23 -21 -146 -116 -273
-212 -284 -214 -385 -305 -691 -620 -132 -136 -269 -271 -305 -299 -36 -28
-89 -71 -118 -95 l-53 -45 73 -43 c40 -24 81 -43 91 -44 28 0 124 101 226 240
275 376 281 383 281 345 0 -8 18 -28 40 -46 l39 -32 -62 -71 c-228 -261 -343
-447 -578 -935 -86 -179 -110 -237 -103 -250 6 -9 57 -44 115 -78 57 -35 109
-70 115 -78 6 -8 14 -11 18 -7 4 4 6 3 5 -3 -6 -18 10 -75 20 -75 6 0 8 8 4
18 -5 13 -3 14 7 5 7 -6 19 -9 26 -6 16 6 18 -11 4 -37 -7 -14 -6 -19 8 -22
13 -4 18 0 18 15 -1 11 6 22 14 24 12 4 12 3 1 -5 -11 -8 -11 -11 1 -18 8 -5
17 -15 20 -23 2 -8 14 -16 27 -18 13 -2 20 1 16 7 -10 16 22 12 39 -5 8 -8 18
-15 22 -15 4 0 13 -8 20 -17 13 -17 14 -17 8 1 -6 14 -3 17 12 13 101 -28 144
-44 171 -64 34 -25 48 -30 37 -12 -4 8 1 9 17 4 33 -10 34 -12 21 -39 -9 -20
-7 -27 9 -42 10 -9 19 -12 19 -6 0 6 -5 14 -10 17 -8 5 -8 11 -1 19 6 7 8 16
4 19 -3 4 1 7 10 7 17 0 47 -26 47 -41 0 -5 4 -9 10 -9 5 0 7 6 4 14 -4 10 2
12 21 8 17 -3 24 -9 21 -18 -3 -7 0 -16 6 -20 6 -4 8 -3 4 4 -9 15 29 25 51
14 10 -5 37 -13 61 -17 23 -4 42 -11 42 -17 0 -6 6 -8 14 -5 8 3 49 -3 90 -15
55 -15 76 -25 76 -37 0 -12 2 -13 8 -3 7 10 16 9 45 -3 20 -8 37 -20 37 -26 0
-5 5 -7 10 -4 6 4 16 3 23 -2 7 -5 31 -15 55 -22 23 -6 42 -15 42 -20 0 -5 16
-7 35 -5 24 1 35 -2 35 -11 0 -7 7 -15 14 -18 10 -4 13 -1 9 9 -6 17 32 20 43
3 4 -7 9 -8 13 -1 4 6 25 7 61 0 53 -9 56 -11 73 -53 11 -25 22 -44 25 -43 4
2 22 -3 39 -9 25 -9 31 -16 27 -30 -4 -14 -3 -15 4 -4 7 9 12 10 16 2 10 -16
26 -14 20 3 -4 9 3 14 20 14 22 0 25 -4 20 -23 -4 -15 -1 -22 9 -22 9 0 12 7
9 20 -4 14 0 18 13 15 39 -7 91 -157 120 -346 10 -68 29 -129 70 -230 92 -220
94 -231 195 -882 21 -140 46 -311 54 -380 35 -284 75 -640 82 -712 l6 -78 -25
0 c-14 0 -36 -4 -49 -9 -24 -9 -24 -10 -14 -74 13 -76 17 -82 45 -67 20 10 21
9 21 -69 0 -46 4 -81 10 -83 7 -2 7 -46 0 -138 -10 -123 -25 -391 -37 -678 -5
-125 -3 -122 -98 -152 -22 -7 -44 -17 -50 -24 -5 -6 -28 -24 -50 -40 -22 -17
-57 -47 -79 -68 -21 -21 -44 -38 -50 -38 -14 0 -66 -75 -66 -94 0 -19 110
-120 145 -134 17 -7 36 -26 44 -42 19 -45 114 -117 174 -135 77 -22 222 -45
281 -45 62 0 150 24 189 52 36 26 67 88 111 228 20 63 51 155 68 204 39 111
47 98 49 -80 l1 -124 31 0 32 0 -3 162 c-1 96 1 157 7 148 15 -27 32 -164 34
-283 2 -112 3 -118 24 -123 12 -3 26 -3 32 0 6 4 10 67 10 159 -1 168 13 271
79 592 42 204 50 316 27 371 -18 44 -87 118 -140 148 -43 26 -76 68 -35 46 32
-17 36 -12 37 60 1 42 -3 70 -9 70 -6 0 -8 12 -4 30 5 29 4 30 -29 30 -32 0
-35 2 -33 28 1 15 -1 33 -5 39 -15 25 105 674 167 901 48 175 54 368 20 603
-18 126 -42 203 -123 389 -81 186 -104 259 -131 416 -20 117 -27 264 -13 278
4 3 6 29 4 57 -2 37 1 49 9 44 7 -4 10 -1 8 11 -2 13 6 20 32 26 19 4 41 5 48
3 7 -3 12 4 12 16 0 11 4 17 10 14 6 -3 7 1 4 9 -4 12 0 16 17 17 13 1 36 3
52 5 15 1 27 -1 27 -7 0 -5 4 -9 10 -9 5 0 7 8 3 18 -5 14 -3 15 8 5 16 -15
33 -17 24 -3 -9 14 19 12 33 -2 9 -9 12 -9 12 3 0 9 12 15 34 16 19 2 56 11
83 21 l48 18 0 114 c0 182 -15 711 -22 752 l-5 37 69 -18 c109 -28 167 -66
190 -124 26 -65 26 -33 -1 50 -58 183 -95 316 -96 346 0 4 6 7 13 7 26 0 60
51 89 132 16 46 39 109 50 140 29 81 20 138 -29 176 -113 87 -196 156 -240
199 l-50 49 8 50 c47 282 122 853 130 991 11 186 0 421 -27 563 -20 114 -33
570 -34 1260 -1 654 -9 744 -84 915 -26 56 -160 194 -263 269 -95 70 -183 222
-214 371 -22 106 -23 131 -3 90 13 -26 14 -27 10 -5 -20 90 -28 150 -23 164 9
23 27 10 27 -19 0 -13 8 -28 17 -34 14 -7 17 -24 16 -97 -2 -109 17 -204 52
-266 15 -27 28 -48 30 -48 2 0 -7 32 -21 72 -27 82 -30 104 -8 68 9 -15 12
-17 8 -5 -11 28 -17 151 -9 191 3 19 12 34 20 34 22 0 28 20 13 38 -40 46 -23
40 21 -8 28 -30 48 -47 45 -37 -12 34 24 6 57 -44 29 -45 31 -54 24 -97 -5
-26 -8 -77 -8 -115 0 -57 6 -78 36 -140 20 -40 46 -82 58 -93 l23 -19 -23 32
c-12 18 -19 38 -16 43 4 6 1 9 -6 8 -37 -8 -64 179 -34 232 13 24 14 21 16
-45 l2 -70 10 53 c10 55 27 71 27 25 0 -14 2 -24 5 -21 3 3 1 49 -5 103 -7 70
-16 105 -28 119 -42 48 -68 111 -51 122 5 3 9 -4 9 -15 0 -11 4 -22 9 -25 5
-4 7 3 4 13 -6 24 45 121 64 121 7 0 13 -5 13 -11 0 -5 5 -7 10 -4 6 3 10 2
10 -3 0 -9 -25 -24 -42 -26 -5 -1 -8 -4 -8 -8 0 -5 0 -10 0 -13 0 -3 11 2 25
11 21 13 25 14 25 2 0 -8 -5 -19 -12 -26 -9 -9 -9 -12 0 -12 7 0 12 5 12 10 0
15 30 12 36 -4 3 -8 1 -31 -5 -52 -14 -49 -6 -56 13 -13 15 34 15 33 10 -32
-5 -55 -3 -73 14 -105 32 -60 54 -132 62 -204 4 -40 8 -52 9 -30 1 26 4 31 10
20 13 -19 3 -65 -26 -124 -32 -64 -10 -49 24 17 23 43 27 64 27 122 -1 39 -9
98 -18 133 -12 44 -14 68 -7 80 10 16 10 16 11 0 0 -10 5 -18 11 -18 6 0 8 9
4 23 -13 40 11 4 30 -46 10 -26 20 -46 22 -44 2 3 -8 37 -23 76 l-27 72 21 72
c33 116 34 132 18 187 -9 29 -20 58 -24 64 -13 15 -11 49 2 58 6 4 23 8 37 8
14 0 35 9 47 21 l23 20 14 -35 c8 -19 26 -101 40 -183 25 -149 55 -265 76
-293 9 -12 10 -11 4 5 -27 78 -55 226 -55 295 0 25 -7 70 -15 100 -25 95 -26
107 -6 65 11 -22 20 -33 21 -25 1 9 5 6 11 -8 5 -13 6 -54 3 -92 -3 -39 0 -94
6 -125 14 -68 22 -68 12 0 -4 27 -3 79 2 115 11 82 -8 152 -67 244 -42 64 -66
144 -72 236 -4 50 -2 53 11 36 8 -11 14 -25 14 -30 0 -6 5 -3 11 6 11 19 3 39
-30 79 -111 131 -151 189 -132 189 5 0 37 -26 70 -58 34 -33 61 -57 61 -55 0
2 9 -1 20 -7 11 -6 34 -39 50 -73 16 -34 27 -51 24 -37 -3 14 15 -11 40 -55
43 -75 57 -102 85 -165 l11 -25 -6 25 c-6 22 1 18 47 -25 59 -56 66 -62 159
-137 36 -29 59 -44 51 -35 -7 9 -10 17 -5 17 5 0 -25 33 -65 74 -80 80 -90
100 -125 242 -13 50 -26 96 -30 102 -4 7 -14 37 -21 67 -8 31 -24 74 -35 96
-12 22 -18 45 -14 51 4 6 3 8 -3 5 -6 -4 -14 0 -17 9 -3 8 -2 12 4 9 18 -11
11 13 -7 27 -10 7 -19 20 -21 28 -2 8 -13 26 -26 40 -73 83 -116 128 -116 123
0 -3 -23 17 -51 46 -29 28 -57 51 -63 51 -6 -1 23 -33 65 -73 71 -67 112 -115
153 -178 14 -22 14 -26 1 -26 -8 0 -23 10 -32 21 -18 21 -18 21 5 2 26 -22 28
-15 6 19 -16 24 -42 37 -28 13 4 -7 3 -8 -5 -4 -6 4 -9 11 -7 15 8 12 -165
184 -188 187 -26 4 -202 141 -193 150 9 9 100 -35 132 -64 29 -27 29 -26 -3
11 -18 21 -32 40 -32 43 0 12 42 -20 75 -58 l37 -43 -31 46 c-32 50 -145 154
-158 146 -5 -3 -24 3 -43 14 -19 10 -31 18 -27 19 4 0 21 -7 37 -15 17 -9 30
-13 30 -10 0 2 -23 17 -51 32 -125 67 -133 77 -57 70 91 -9 187 -65 255 -149
30 -37 57 -68 59 -68 9 0 -39 69 -73 105 -21 22 -37 43 -36 47 2 3 -5 12 -14
20 -14 11 -16 11 -9 -1 6 -9 5 -12 -5 -9 -8 3 -13 10 -12 16 2 7 -4 9 -14 5
-11 -4 -14 -3 -9 5 5 8 1 10 -10 5 -13 -5 -15 -3 -9 8 4 8 5 11 0 7 -4 -4 -17
-2 -28 4 -21 11 -92 22 -221 34 -51 5 -70 4 -76 -6 -6 -10 -12 -11 -22 -3 -7
6 -26 13 -41 17 -15 4 -25 11 -22 16 3 4 -19 14 -50 21 -30 7 -52 16 -48 22 8
14 82 -1 119 -23 34 -21 49 -25 40 -11 -13 21 -100 51 -177 61 -111 13 -114
13 -186 -20z m137 -24 c-30 -6 -75 -21 -99 -34 -25 -12 -52 -22 -60 -21 -12 0
-11 3 4 10 17 8 16 9 -8 6 -22 -4 -25 -2 -16 9 19 23 99 43 169 42 l65 -1 -55
-11z m-13 -22 c-3 -3 -12 -4 -19 -1 -8 3 -5 6 6 6 11 1 17 -2 13 -5z m342 -70
c9 -10 -53 6 -63 17 -6 5 4 5 24 -1 18 -5 35 -12 39 -16z m-284 -14 c4 -6 -8
-10 -29 -10 -19 0 -38 5 -41 10 -4 6 8 10 29 10 19 0 38 -4 41 -10z m130 -20
c-3 -5 -13 -10 -21 -10 -8 0 -12 5 -9 10 3 6 13 10 21 10 8 0 12 -4 9 -10z
m-85 -86 c0 -2 -7 -4 -15 -4 -8 0 -15 4 -15 10 0 5 7 7 15 4 8 -4 15 -8 15
-10z m272 -19 c16 -14 26 -25 23 -25 -4 0 -20 11 -37 25 -16 14 -26 25 -23 25
4 0 20 -11 37 -25z m-812 -4 c0 -5 -17 -11 -37 -13 -21 -3 -47 -9 -57 -13 -14
-6 -17 -5 -12 4 16 25 106 44 106 22z m1084 -30 c-2 -3 -12 3 -22 13 -16 17
-16 18 5 5 12 -7 20 -15 17 -18z m-100 -18 c66 -59 126 -108 191 -156 33 -24
68 -54 79 -65 10 -12 22 -20 26 -17 9 5 83 -70 86 -88 1 -7 20 -40 44 -72 44
-64 130 -235 161 -324 10 -29 18 -71 17 -92 l-1 -38 -30 37 c-36 45 -54 77
-38 68 17 -11 14 0 -30 92 -46 98 -83 176 -130 276 -38 82 -130 180 -204 217
-83 41 -197 110 -191 116 2 3 17 -2 33 -11 50 -27 98 -49 88 -39 -5 5 -37 30
-70 55 -62 47 -94 78 -80 78 4 0 27 -17 49 -37z m-1574 7 c0 -5 -9 -10 -20
-10 -11 0 -20 -4 -20 -10 0 -5 -7 -10 -15 -10 -18 0 -20 26 -2 33 22 9 57 7
57 -3z m280 -31 c0 -18 -4 -28 -10 -24 -5 3 -10 20 -10 36 0 18 4 28 10 24 6
-3 10 -20 10 -36z m-385 21 c-3 -5 -10 -10 -16 -10 -5 0 -9 5 -9 10 0 6 7 10
16 10 8 0 12 -4 9 -10z m658 3 c-7 -2 -19 -2 -25 0 -7 3 -2 5 12 5 14 0 19 -2
13 -5z m-759 -48 c-25 -19 -40 -19 -24 0 7 8 20 15 28 15 13 0 12 -3 -4 -15z
m686 -9 c0 -2 -8 -10 -17 -17 -16 -13 -17 -12 -4 4 13 16 21 21 21 13z m-731
-62 c-13 -14 -45 -42 -71 -62 -59 -45 -52 -64 8 -20 24 17 46 29 49 26 8 -8
-135 -158 -151 -158 -8 0 -14 8 -14 18 0 13 2 14 9 4 5 -9 10 3 15 35 5 42 13
56 59 99 55 54 95 84 111 84 5 0 -1 -12 -15 -26z m728 -46 c-16 -10 -21 -2
-13 19 6 15 9 15 16 3 6 -9 5 -17 -3 -22z m1297 -104 c22 -25 68 -72 101 -106
33 -33 52 -57 42 -54 -10 3 -23 6 -28 6 -5 0 -34 23 -64 50 -30 28 -61 50 -68
50 -8 0 -23 20 -35 44 -12 24 -29 49 -37 56 -26 22 -16 31 16 14 17 -8 50 -36
73 -60z m63 18 c48 -44 147 -202 126 -202 -4 0 -43 50 -86 110 -43 61 -82 110
-86 110 -5 0 -11 7 -15 15 -9 25 6 16 61 -33z m-2167 -41 c-5 -11 -15 -23 -22
-27 -7 -5 -8 -2 -3 7 21 37 44 55 25 20z m25 -20 c-3 -6 -11 -11 -17 -11 -6 0
-6 6 2 15 14 17 26 13 15 -4z m7 -68 c5 -52 -13 -93 -40 -93 -30 0 -1 138 29
140 4 0 9 -21 11 -47z m2209 -126 c23 -28 26 -36 10 -22 -26 23 -71 82 -54 72
6 -4 26 -26 44 -50z m228 -112 c-1 -13 -57 107 -57 120 0 6 13 -17 28 -50 16
-33 29 -64 29 -70z m-115 9 c3 -8 2 -12 -4 -9 -6 3 -10 10 -10 16 0 14 7 11
14 -7z m-2627 -86 c-3 -8 -6 -5 -6 6 -1 11 2 17 5 13 3 -3 4 -12 1 -19z m2506
-43 l6 -30 -14 30 c-16 34 -21 72 -6 45 5 -8 11 -28 14 -45z m185 30 c-3 -3
-9 2 -12 12 -6 14 -5 15 5 6 7 -7 10 -15 7 -18z m-2633 5 c-3 -5 -12 -10 -18
-10 -7 0 -6 4 3 10 19 12 23 12 15 0z m2440 -81 c15 -29 15 -31 -1 -27 -11 2
-18 13 -18 31 -2 34 0 34 19 -4z m-2535 3 c0 -5 -7 -17 -15 -28 -20 -26 -19
-40 2 -23 13 11 13 8 -3 -16 -18 -28 -19 -29 -22 -6 -2 12 0 30 4 39 7 16 9
23 13 37 2 8 21 6 21 -3z m-24 -138 c-4 -9 -9 -15 -11 -12 -3 3 -3 13 1 22 4
9 9 15 11 12 3 -3 3 -13 -1 -22z m234 -10 c0 -8 -4 -12 -10 -9 -5 3 -10 10
-10 16 0 5 5 9 10 9 6 0 10 -7 10 -16z m2340 -45 c0 -5 -4 -9 -10 -9 -5 0 -10
7 -10 16 0 8 5 12 10 9 6 -3 10 -10 10 -16z m-2420 -114 c0 -33 7 -78 15 -100
21 -56 18 -91 -9 -160 -24 -58 -25 -58 -32 -30 -4 17 -11 35 -16 41 -5 7 -4
23 3 40 8 18 12 87 12 179 0 133 1 147 13 120 7 -16 13 -57 14 -90z m2380 69
c0 -15 -6 -24 -15 -24 -17 0 -18 4 -9 37 8 29 24 20 24 -13z m511 -51 c13 -16
12 -17 -3 -4 -10 7 -18 15 -18 17 0 8 8 3 21 -13z m-994 -35 c-3 -8 -6 -5 -6
6 -1 11 2 17 5 13 3 -3 4 -12 1 -19z m-1628 -36 c9 -3 11 0 6 9 -20 35 10 -4
40 -52 19 -30 30 -58 25 -62 -11 -12 -47 1 -72 26 l-22 22 17 -27 c10 -16 13
-28 8 -28 -15 0 -24 20 -27 59 -2 20 -6 52 -9 71 -6 33 -6 34 7 11 7 -14 19
-26 27 -29z m-318 -113 c-8 -20 -10 -15 -10 32 -1 31 2 72 7 90 6 29 7 25 10
-32 2 -36 -2 -76 -7 -90z m109 73 c0 -13 -4 -20 -10 -17 -5 3 -10 21 -10 38 0
24 3 28 10 17 5 -8 10 -25 10 -38z m258 23 c-3 -3 -9 2 -12 12 -6 14 -5 15 5
6 7 -7 10 -15 7 -18z m2001 -50 l0 -20 -9 20 c-5 11 -9 27 -9 35 -1 13 0 13 9
0 5 -8 9 -24 9 -35z m25 -10 c7 -45 2 -38 -13 19 -6 22 -6 35 -1 30 4 -5 11
-27 14 -49z m-1665 -135 c0 -8 -9 3 -20 25 -10 22 -18 47 -18 55 0 8 9 -3 20
-25 10 -22 18 -47 18 -55z m1591 65 c0 -14 -2 -25 -4 -25 -2 0 -6 11 -8 25 -3
14 -1 25 3 25 5 0 9 -11 9 -25z m-1643 -37 c-3 -8 -6 -5 -6 6 -1 11 2 17 5 13
3 -3 4 -12 1 -19z m1287 -53 l5 -20 -15 20 c-9 11 -22 34 -31 50 l-15 30 25
-30 c14 -16 28 -39 31 -50z m-1865 -9 c-14 -49 -9 -76 6 -31 l13 40 1 -67 c1
-68 -12 -97 -25 -56 -3 12 -15 31 -25 42 -20 21 -19 31 8 96 17 43 36 24 22
-24z m241 -10 c0 -5 -7 -3 -15 4 -8 7 -15 9 -15 5 0 -4 -7 -2 -15 5 -17 14
-21 45 -5 35 6 -3 10 0 10 7 0 7 9 0 20 -17 11 -16 20 -34 20 -39z m80 29
c-11 -13 -10 -14 4 -9 18 7 22 -11 4 -22 -6 -4 -17 1 -25 11 -17 25 -17 36 2
29 8 -4 15 -1 15 7 0 7 3 9 6 6 4 -4 1 -13 -6 -22z m220 -20 c0 -8 -2 -15 -4
-15 -2 0 -6 7 -10 15 -3 8 -1 15 4 15 6 0 10 -7 10 -15z m112 -39 c-8 -15 -24
24 -16 42 6 14 8 13 14 -8 4 -14 5 -29 2 -34z m-599 -99 c2 -44 0 -73 -4 -65
-5 7 -8 47 -8 88 1 92 6 82 12 -23z m2124 46 c-3 -10 -5 -2 -5 17 0 19 2 27 5
18 2 -10 2 -26 0 -35z m-1559 -1 c2 -7 -2 -10 -12 -6 -9 3 -16 11 -16 16 0 13
23 5 28 -10z m-365 -13 c27 -18 36 -34 54 -103 24 -85 43 -193 43 -236 -1 -24
-1 -24 -30 10 -92 108 -170 253 -148 275 3 3 18 1 34 -5 25 -9 27 -8 12 3 -20
16 -40 62 -31 71 11 11 33 6 66 -15z m1758 -35 c5 -15 8 -29 5 -31 -2 -2 -8
10 -14 26 -13 38 -5 41 9 5z m-987 -250 c9 -24 -8 -15 -34 18 l-24 31 26 -17
c15 -9 29 -24 32 -32z m761 -1975 c13 -112 23 -204 22 -206 -2 -1 -20 2 -42 8
-66 18 -114 -26 -86 -79 7 -14 7 -24 -3 -38 -13 -17 -15 -15 -25 22 -6 22 -15
73 -21 115 -9 62 -8 83 5 119 20 56 118 270 122 266 2 -2 14 -95 28 -207z
m-107 -772 c6 -5 12 -18 12 -29 0 -26 81 -108 107 -108 25 0 33 -37 33 -165 0
-49 11 -178 24 -285 13 -107 23 -196 21 -198 -5 -6 -140 252 -150 288 -5 19
-24 56 -42 81 -18 26 -42 71 -53 100 -11 30 -31 74 -44 99 -28 52 -66 171 -66
205 0 21 4 22 73 21 39 -1 78 -5 85 -9z m-1853 -828 c-13 -24 -25 -57 -25 -73
0 -31 -75 -130 -91 -120 -13 8 -10 94 4 126 10 23 126 120 135 113 1 -1 -9
-22 -23 -46z m-182 -157 c-3 -36 -1 -67 6 -80 10 -20 9 -23 -14 -32 -14 -5
-25 -15 -25 -22 0 -9 -3 -9 -12 0 -20 20 -82 14 -119 -11 -19 -12 -43 -39 -54
-59 -19 -35 -19 -37 -1 -56 9 -11 29 -23 43 -27 l26 -6 -29 -30 c-15 -16 -32
-29 -37 -29 -18 0 -77 68 -77 89 0 12 54 76 146 171 81 82 148 150 149 150 2
0 1 -26 -2 -58z m-68 -156 c18 -13 17 -14 -13 -30 -44 -23 -62 -21 -62 8 0 36
40 48 75 22z m-620 -1676 c3 -5 1 -10 -4 -10 -6 0 -11 5 -11 10 0 6 2 10 4 10
3 0 8 -4 11 -10z"/>
<path d="M3715 12180 c21 -22 41 -40 44 -40 3 0 -13 18 -34 40 -21 22 -41 40
-44 40 -3 0 13 -18 34 -40z"/>
<path d="M3930 11702 c0 -5 10 -17 22 -28 l21 -19 -18 28 c-18 28 -25 33 -25
19z"/>
<path d="M1394 12045 c-9 -14 -14 -28 -11 -31 3 -3 13 8 22 25 19 37 12 41
-11 6z"/>
<path d="M1132 11830 c0 -14 2 -19 5 -12 2 6 2 18 0 25 -3 6 -5 1 -5 -13z"/>
<path d="M3691 11373 c0 -5 7 -24 14 -43 l14 -35 -4 35 c-2 19 -4 38 -4 43 -1
4 -5 7 -11 7 -5 0 -10 -3 -9 -7z"/>
<path d="M3658 11363 c7 -3 16 -2 19 1 4 3 -2 6 -13 5 -11 0 -14 -3 -6 -6z"/>
<path d="M4260 11315 c19 -19 36 -35 39 -35 3 0 -10 16 -29 35 -19 19 -36 35
-39 35 -3 0 10 -16 29 -35z"/>
<path d="M3831 11324 c0 -11 3 -14 6 -6 3 7 2 16 -1 19 -3 4 -6 -2 -5 -13z"/>
<path d="M1121 11304 c0 -11 3 -14 6 -6 3 7 2 16 -1 19 -3 4 -6 -2 -5 -13z"/>
<path d="M1041 11234 c0 -11 3 -14 6 -6 3 7 2 16 -1 19 -3 4 -6 -2 -5 -13z"/>
<path d="M3872 11200 c0 -19 2 -27 5 -17 2 9 2 25 0 35 -3 9 -5 1 -5 -18z"/>
<path d="M1032 11040 c0 -14 2 -19 5 -12 2 6 2 18 0 25 -3 6 -5 1 -5 -13z"/>
<path d="M1292 10865 c0 -16 2 -22 5 -12 2 9 2 23 0 30 -3 6 -5 -1 -5 -18z"/>
<path d="M3681 10824 c0 -11 3 -14 6 -6 3 7 2 16 -1 19 -3 4 -6 -2 -5 -13z"/>
<path d="M2250 10776 c0 -2 8 -10 18 -17 15 -13 16 -12 3 4 -13 16 -21 21 -21
13z"/>
<path d="M1960 10721 c5 -11 15 -23 21 -27 6 -3 3 5 -6 20 -20 30 -30 35 -15
7z"/>
<path d="M1940 10711 c0 -6 4 -13 10 -16 6 -3 7 1 4 9 -7 18 -14 21 -14 7z"/>
<path d="M3360 10661 c0 -5 5 -13 10 -16 6 -3 10 -2 10 4 0 5 -4 13 -10 16 -5
3 -10 2 -10 -4z"/>
<path d="M1560 10440 c6 -11 13 -20 16 -20 2 0 0 9 -6 20 -6 11 -13 20 -16 20
-2 0 0 -9 6 -20z"/>
<path d="M240 5094 c0 -8 5 -12 10 -9 6 3 10 10 10 16 0 5 -4 9 -10 9 -5 0
-10 -7 -10 -16z"/>
<path d="M260 5046 c0 -18 17 -29 30 -21 8 5 7 11 -1 21 -15 18 -29 18 -29 0z"/>
<path d="M322 5008 c2 -6 10 -14 16 -16 7 -2 10 2 6 12 -7 18 -28 22 -22 4z"/>
<path d="M380 4950 c0 -5 5 -10 11 -10 5 0 7 5 4 10 -3 6 -8 10 -11 10 -2 0
-4 -4 -4 -10z"/>
<path d="M660 4915 c0 -8 7 -15 15 -15 8 0 15 7 15 15 0 8 -7 15 -15 15 -8 0
-15 -7 -15 -15z"/>
<path d="M572 4849 c2 -6 8 -10 13 -10 5 0 11 4 13 10 2 6 -4 11 -13 11 -9 0
-15 -5 -13 -11z"/>
<path d="M750 4834 c0 -17 17 -36 24 -26 3 5 -1 15 -9 22 -8 7 -15 9 -15 4z"/>
<path d="M865 4780 c3 -5 11 -10 16 -10 6 0 7 5 4 10 -3 6 -11 10 -16 10 -6 0
-7 -4 -4 -10z"/>
<path d="M965 4710 c-3 -4 2 -11 11 -14 22 -8 34 -7 34 3 0 12 -39 21 -45 11z"/>
<path d="M1175 4700 c3 -5 10 -10 16 -10 5 0 9 5 9 10 0 6 -7 10 -16 10 -8 0
-12 -4 -9 -10z"/>
<path d="M1350 4691 c0 -5 5 -13 10 -16 6 -3 10 -2 10 4 0 5 -4 13 -10 16 -5
3 -10 2 -10 -4z"/>
<path d="M1550 4605 c7 -9 15 -13 17 -11 7 7 -7 26 -19 26 -6 0 -6 -6 2 -15z"/>
<path d="M1610 4580 c0 -5 5 -10 10 -10 6 0 10 5 10 10 0 6 -4 10 -10 10 -5 0
-10 -4 -10 -10z"/>
<path d="M1515 4571 c-3 -5 -1 -12 5 -16 5 -3 10 1 10 9 0 18 -6 21 -15 7z"/>
<path d="M1690 4534 c0 -8 5 -12 10 -9 6 3 10 10 10 16 0 5 -4 9 -10 9 -5 0
-10 -7 -10 -16z"/>
<path d="M3305 4500 c3 -5 8 -10 11 -10 2 0 4 5 4 10 0 6 -5 10 -11 10 -5 0
-7 -4 -4 -10z"/>
<path d="M3340 4503 c0 -5 5 -15 10 -23 8 -12 10 -11 10 8 0 12 -4 22 -10 22
-5 0 -10 -3 -10 -7z"/>
<path d="M3466 4485 c4 -8 8 -15 10 -15 2 0 4 7 4 15 0 8 -4 15 -10 15 -5 0
-7 -7 -4 -15z"/>
<path d="M1922 4459 c2 -7 10 -15 17 -17 8 -3 12 1 9 9 -2 7 -10 15 -17 17 -8
3 -12 -1 -9 -9z"/>
<path d="M3181 4454 c0 -11 3 -14 6 -6 3 7 2 16 -1 19 -3 4 -6 -2 -5 -13z"/>
<path d="M3260 4444 c0 -8 5 -12 10 -9 6 4 8 11 5 16 -9 14 -15 11 -15 -7z"/>
<path d="M3397 4453 c-4 -3 -7 -11 -7 -17 0 -6 5 -5 12 2 6 6 9 14 7 17 -3 3
-9 2 -12 -2z"/>
<path d="M1990 4430 c0 -5 5 -10 11 -10 5 0 7 5 4 10 -3 6 -8 10 -11 10 -2 0
-4 -4 -4 -10z"/>
</g>
</svg>
