<?xml version="1.0" standalone="no"?>
<!DOCTYPE svg PUBLIC "-//W3C//DTD SVG 20010904//EN"
 "http://www.w3.org/TR/2001/REC-SVG-20010904/DTD/svg10.dtd">
<svg version="1.0" xmlns="http://www.w3.org/2000/svg"
 width="1280.000000pt" height="1198.000000pt" viewBox="0 0 1280.000000 1198.000000"
 preserveAspectRatio="xMidYMid meet">
<metadata>
Created by potrace 1.15, written by Peter Selinger 2001-2017
</metadata>
<g transform="translate(0.000000,1198.000000) scale(0.100000,-0.100000)"
fill="#f44336" stroke="none">
<path d="M9840 5724 c-30 -2 -116 -8 -190 -14 -357 -27 -539 -43 -700 -60 -96
-11 -249 -26 -340 -35 -354 -31 -408 -36 -495 -51 -176 -30 -260 -54 -455
-131 -63 -25 -158 -61 -210 -79 -357 -123 -431 -157 -530 -239 -119 -99 -145
-111 -323 -146 -57 -11 -59 -11 -130 25 -118 59 -243 68 -404 29 -18 -4 -24 1
-34 36 -27 90 -127 159 -262 182 -119 20 -233 -9 -431 -108 -128 -64 -256
-168 -373 -303 -104 -119 -161 -164 -282 -222 -58 -27 -148 -70 -199 -95 -80
-38 -98 -43 -120 -35 -95 37 -232 63 -382 73 -160 11 -234 20 -240 28 -15 19
-91 60 -130 69 -108 26 -178 32 -232 21 -62 -13 -116 -41 -141 -72 -74 -93
-160 -191 -211 -242 -77 -75 -123 -181 -125 -285 -1 -112 -11 -159 -33 -171
-33 -18 -238 -39 -428 -45 -208 -6 -298 -22 -396 -69 -139 -67 -207 -140 -220
-237 -9 -71 20 -102 156 -169 63 -31 138 -61 165 -67 169 -35 206 -43 265 -52
87 -13 254 -13 496 2 153 9 225 9 305 0 130 -14 410 -76 464 -102 39 -19 66
-22 175 -23 87 0 216 42 268 87 26 23 43 30 67 28 38 -4 59 18 52 54 -2 15 2
39 12 55 15 27 15 29 -6 51 -20 20 -26 21 -56 10 -53 -19 -61 -15 -38 16 20
28 23 29 148 36 70 5 164 11 208 14 130 11 213 -1 292 -41 303 -156 475 -194
735 -163 217 27 292 43 388 81 l91 36 332 10 c183 5 346 11 362 14 102 16 313
36 452 45 186 11 217 20 285 87 l47 46 63 -21 c35 -12 96 -33 136 -47 208 -71
418 -72 782 -5 218 40 323 71 515 150 244 102 601 237 861 328 l161 57 64 -59
c88 -82 169 -118 279 -124 79 -4 87 -7 122 -38 48 -43 71 -48 178 -41 83 5 87
5 83 -14 -7 -27 11 -24 62 11 38 26 53 30 110 30 41 0 80 -6 101 -16 41 -20
170 -155 225 -236 41 -59 58 -69 79 -44 9 12 3 29 -36 88 -48 74 -84 135 -84
143 0 8 67 24 125 30 85 8 159 -14 258 -78 109 -71 139 -82 220 -80 104 3 181
33 259 102 76 67 84 131 22 180 -34 27 -170 92 -254 121 -83 30 -97 42 -116
106 -19 67 -85 148 -210 261 -54 48 -131 120 -172 158 -123 116 -382 439 -525
655 -28 41 -100 182 -149 290 -43 92 -81 131 -178 178 l-75 37 -250 1 c-137 0
-275 -1 -305 -2z m304 -789 c35 -77 74 -130 152 -207 l68 -67 -73 25 c-53 18
-99 26 -169 29 -99 3 -366 -21 -547 -50 -267 -42 -564 -69 -581 -52 -4 3 -1 9
7 11 8 2 124 37 259 76 275 80 427 130 675 225 94 35 173 64 178 65 4 0 18
-25 31 -55z m498 -439 c46 -29 112 -68 148 -86 82 -41 150 -83 150 -93 0 -4
-37 -6 -82 -4 -88 4 -236 41 -254 64 -6 7 -14 35 -18 61 -3 26 -15 62 -26 80
-11 17 -15 32 -10 32 5 0 47 -24 92 -54z"/>
</g>
</svg>
