<?xml version="1.0" standalone="no"?>
<!DOCTYPE svg PUBLIC "-//W3C//DTD SVG 20010904//EN"
 "http://www.w3.org/TR/2001/REC-SVG-20010904/DTD/svg10.dtd">
<svg version="1.0" xmlns="http://www.w3.org/2000/svg"
 width="1280.000000pt" height="1198.000000pt" viewBox="0 0 1280.000000 1198.000000"
 preserveAspectRatio="xMidYMid meet">
<metadata>
Created by potrace 1.15, written by Peter Selinger 2001-2017
</metadata>
<g transform="translate(0.000000,1198.000000) scale(0.100000,-0.100000)"
fill="#f44336" stroke="none">
<path d="M5765 9750 c-44 -4 -90 -10 -101 -14 -12 -4 -52 -7 -88 -8 -49 -1
-66 -4 -62 -13 2 -7 -7 -18 -20 -24 -35 -16 -40 -14 -19 9 10 11 13 20 8 20
-22 0 -81 -30 -86 -44 -4 -10 -18 -15 -40 -14 -51 2 -217 -95 -217 -126 0 -7
-25 -33 -55 -59 -64 -56 -115 -126 -120 -166 -2 -16 -11 -54 -20 -86 -10 -34
-15 -72 -11 -93 9 -59 15 -137 20 -282 4 -140 19 -259 37 -292 6 -11 14 -55
18 -99 9 -80 61 -215 69 -176 2 9 7 17 12 17 14 0 27 -30 46 -107 11 -49 21
-70 29 -66 8 3 16 -7 20 -26 9 -41 30 -58 43 -34 10 16 12 15 21 -10 21 -55
10 -163 -31 -302 -33 -115 -116 -267 -221 -408 -100 -134 -156 -235 -177 -317
-18 -69 -25 -513 -10 -660 11 -121 36 -290 61 -415 13 -67 74 -284 150 -533
27 -89 53 -193 59 -230 5 -37 23 -137 40 -222 60 -298 72 -473 45 -649 -20
-133 -42 -187 -124 -306 -219 -316 -274 -401 -324 -505 -175 -364 -183 -703
-24 -1015 64 -125 107 -195 160 -260 54 -65 193 -195 209 -195 24 0 -2 -25
-33 -32 -228 -51 -495 -72 -795 -62 l-211 7 -7 -27 c-17 -67 -8 -70 264 -82
241 -11 232 -24 -15 -21 l-220 2 -3 -42 c-3 -39 -1 -43 20 -43 13 -1 48 -3 78
-5 30 -2 132 -9 225 -15 197 -13 241 -18 229 -29 -15 -13 -174 -78 -264 -107
-57 -19 -108 -45 -157 -80 -40 -29 -90 -58 -110 -65 -62 -19 -124 -54 -200
-111 -127 -95 -306 -277 -338 -344 -17 -36 -7 -86 25 -126 l19 -25 -25 -22
c-21 -18 -24 -27 -19 -54 29 -132 123 -144 555 -71 47 8 144 14 215 14 72 1
175 7 230 15 155 23 351 15 425 -17 31 -13 317 -11 409 2 36 6 120 17 186 25
107 13 161 22 325 56 77 16 288 47 438 64 188 21 1145 27 1352 7 74 -7 227
-19 340 -28 113 -8 243 -21 290 -29 47 -8 159 -20 250 -26 143 -11 182 -10
291 4 156 21 265 57 325 110 52 46 138 161 176 237 54 109 67 258 31 360 -41
115 -240 342 -412 468 -106 78 -291 203 -408 275 -42 27 -73 56 -100 95 -46
68 -47 72 -35 72 6 0 37 -22 69 -50 32 -27 71 -52 86 -56 28 -6 87 11 87 26 0
4 -66 74 -147 157 -82 82 -165 170 -185 195 -21 25 -68 70 -105 99 -38 29 -91
75 -120 101 -58 54 -203 128 -353 181 -153 54 -170 68 -213 179 -19 51 -57
143 -82 203 -26 61 -89 232 -142 380 -52 149 -112 317 -132 375 -21 58 -45
119 -53 135 -9 17 -28 62 -43 100 -16 39 -76 165 -135 280 -117 230 -120 241
-140 475 -16 183 -23 165 68 166 87 0 162 29 239 90 23 19 45 34 50 34 5 0 33
-16 63 -36 130 -86 191 -111 292 -120 105 -10 183 10 235 60 57 58 61 88 29
233 -33 145 -40 169 -81 258 -18 38 -47 101 -64 139 -58 130 -181 320 -317
491 -205 259 -294 398 -345 541 -46 131 -89 300 -89 353 0 29 -12 45 -85 117
-47 46 -94 84 -103 84 -9 0 -60 16 -113 34 -53 19 -120 37 -150 41 -30 4 -66
14 -81 21 -40 21 -56 17 -72 -15 -12 -22 -25 -30 -57 -35 -46 -7 -94 -29 -124
-57 -13 -12 -29 -16 -43 -12 -20 5 -22 11 -22 73 0 37 3 82 6 99 l7 31 83 0
84 0 30 41 c16 23 32 51 36 63 4 11 24 46 45 77 45 67 104 185 149 300 32 80
33 91 35 224 1 100 6 153 17 185 9 25 21 71 28 104 8 41 22 69 45 95 54 60 70
99 68 171 0 38 -9 88 -21 120 -11 30 -28 75 -37 100 -9 25 -25 54 -36 66 -24
26 -24 34 1 34 30 0 26 37 -12 107 -39 72 -63 102 -103 129 -33 23 -113 49
-187 59 -31 5 -66 20 -100 45 -29 20 -69 42 -88 48 -33 11 -202 34 -225 30 -5
0 -46 -4 -90 -8z m947 -2963 c30 -30 54 -70 80 -133 34 -83 98 -259 98 -271 0
-7 -56 42 -146 127 l-71 67 -7 127 c-4 69 -5 126 -2 126 3 0 25 -19 48 -43z
m-47 -2937 c37 -52 138 -185 224 -295 219 -279 243 -311 290 -388 43 -71 141
-263 141 -277 0 -5 -42 9 -92 31 -111 48 -636 225 -693 234 -70 11 -97 26 -92
49 2 12 27 111 55 221 55 216 67 287 78 438 4 54 10 95 14 90 4 -4 38 -51 75
-103z m1519 -1367 c29 -28 51 -63 41 -63 -21 0 -94 63 -95 83 0 16 29 5 54
-20z m-2579 -700 c33 -8 134 -25 225 -38 191 -27 270 -43 270 -55 0 -7 -78
-20 -383 -64 l-88 -13 -42 61 c-60 87 -77 115 -77 127 0 7 7 8 18 4 9 -4 44
-14 77 -22z"/>
</g>
</svg>
