<?xml version="1.0" standalone="no"?>
<!DOCTYPE svg PUBLIC "-//W3C//DTD SVG 20010904//EN"
 "http://www.w3.org/TR/2001/REC-SVG-20010904/DTD/svg10.dtd">
<svg version="1.0" xmlns="http://www.w3.org/2000/svg"
 width="989.000000pt" height="1280.000000pt" viewBox="0 0 989.000000 1280.000000"
 preserveAspectRatio="xMidYMid meet">
<metadata>
Created by potrace 1.15, written by Peter Selinger 2001-2017
</metadata>
<g transform="translate(0.000000,1280.000000) scale(0.100000,-0.100000)"
fill="#f44336" stroke="none">
<path d="M5173 11897 c-34 -19 -65 -32 -68 -29 -3 3 -5 1 -5 -5 0 -6 -38 -13
-87 -16 -120 -8 -171 -22 -228 -65 -52 -40 -136 -145 -160 -202 -8 -19 -22
-48 -30 -63 -8 -15 -10 -25 -5 -22 24 15 -2 -39 -34 -71 -12 -11 -38 -41 -59
-67 -21 -26 -44 -47 -51 -47 -13 0 -126 -117 -126 -132 0 -18 20 -6 55 35 20
23 32 33 27 22 -19 -39 -66 -72 -103 -74 -35 -1 -180 19 -529 76 -132 21 -199
26 -451 30 l-296 5 -22 -29 c-20 -24 -22 -37 -19 -99 3 -65 9 -83 67 -195 77
-149 130 -226 413 -606 180 -242 244 -320 381 -461 179 -184 251 -274 350
-440 133 -220 145 -256 211 -607 30 -159 64 -301 101 -420 53 -172 115 -455
115 -524 0 -44 -15 -76 -103 -224 -43 -70 -93 -159 -112 -196 -19 -38 -68
-127 -108 -198 -128 -220 -210 -415 -248 -588 -21 -92 -16 -330 10 -555 20
-173 116 -767 215 -1330 43 -246 59 -411 60 -620 1 -160 0 -170 -41 -345 -82
-353 -83 -571 -4 -825 27 -88 144 -525 225 -841 64 -250 72 -389 30 -485 -39
-88 -42 -146 -11 -240 27 -83 40 -156 57 -319 13 -123 22 -158 66 -249 19 -40
34 -84 34 -98 0 -30 31 -61 57 -56 13 2 19 15 23 48 l5 45 7 -38 c4 -22 12
-45 19 -53 17 -21 56 -17 73 8 11 16 16 18 16 7 0 -45 67 -70 94 -34 11 15 13
15 25 1 18 -22 58 -20 73 4 10 15 20 18 53 14 71 -10 119 50 80 102 -21 28
-19 30 23 26 30 -3 45 2 69 22 17 14 33 23 36 19 9 -8 57 25 57 39 0 6 8 20
17 30 16 18 16 21 1 48 -15 26 -15 30 -1 41 11 10 13 24 9 50 -3 21 -2 41 4
44 16 10 12 63 -9 103 -10 20 -28 74 -40 119 -12 44 -41 123 -65 175 -24 51
-54 129 -66 172 -20 74 -21 82 -7 135 8 31 15 100 15 153 1 159 35 318 177
838 80 294 91 344 105 503 10 108 9 155 -5 300 -19 192 -17 220 25 507 17 107
39 276 51 375 29 251 90 608 149 872 98 440 127 714 100 979 -5 55 -14 182
-20 284 -21 390 -37 530 -77 652 -18 57 -26 103 -25 148 1 84 36 298 68 420
29 111 140 453 159 490 9 17 27 29 57 37 95 26 184 112 224 218 16 42 19 75
18 199 -1 137 -3 151 -21 166 -27 21 -171 210 -227 297 -24 37 -47 82 -50 100
-19 85 49 685 104 923 25 109 54 292 75 481 14 129 7 472 -14 629 -24 178 -30
205 -66 266 -32 54 -66 78 -99 70 -13 -3 -58 -37 -101 -76 -81 -73 -100 -82
-110 -51 -3 10 -23 31 -45 46 -22 15 -37 31 -34 36 3 5 -5 13 -18 18 -13 5
-44 30 -70 55 -26 25 -54 46 -61 46 -25 0 -172 62 -184 78 -7 8 -33 17 -60 19
-40 3 -58 -2 -110 -30z m-993 -1076 c0 -16 7 -34 15 -41 19 -16 19 -66 1 -119
-8 -22 -14 -59 -13 -81 1 -37 4 -40 35 -46 19 -4 46 -19 60 -35 19 -22 28 -26
39 -18 7 6 13 18 13 25 0 8 4 14 9 14 5 0 11 -22 15 -50 4 -27 11 -50 16 -50
6 0 10 -7 10 -15 0 -21 58 -60 85 -57 16 2 29 -6 44 -27 25 -34 66 -46 106
-31 22 8 32 8 42 -3 12 -12 9 -24 -26 -80 -61 -100 -81 -143 -81 -177 0 -16
-4 -30 -9 -30 -5 0 -54 42 -109 94 -70 65 -139 117 -229 172 -70 42 -137 85
-147 93 -10 9 -55 63 -100 121 -44 58 -133 159 -198 226 -65 66 -118 123 -118
127 0 4 71 8 158 10 86 1 208 4 270 5 l112 2 0 -29z m34 2 c-10 -40 -14 -41
-14 -5 0 18 5 32 10 32 6 0 8 -11 4 -27z m126 19 c0 -5 -11 -19 -25 -32 -19
-18 -22 -26 -13 -32 9 -5 8 -8 -5 -8 -23 0 -30 20 -18 53 8 20 18 27 36 27 14
0 25 -4 25 -8z m-97 -17 c-3 -9 -8 -14 -10 -11 -3 3 -2 9 2 15 9 16 15 13 8
-4z m274 -57 c2 -18 0 -20 -7 -8 -12 18 -13 30 -2 30 4 0 9 -10 9 -22z m-152
2 c3 -5 -19 -36 -50 -70 -30 -33 -55 -67 -55 -77 0 -9 -3 -14 -6 -11 -3 3 -2
33 2 66 6 59 7 60 46 73 21 7 41 16 44 21 7 11 11 10 19 -2z m-45 -100 c0 -5
-5 -10 -11 -10 -5 0 -7 5 -4 10 3 6 8 10 11 10 2 0 4 -4 4 -10z m10 -34 c0
-17 -14 -29 -23 -20 -8 8 3 34 14 34 5 0 9 -6 9 -14z m304 -261 c9 -44 -7 -67
-42 -63 -37 4 -51 32 -28 57 10 11 15 24 11 30 -4 7 0 8 11 4 14 -5 16 -3 11
10 -5 15 -3 16 12 8 10 -6 22 -27 25 -46z m-84 -65 c0 -5 -2 -10 -4 -10 -3 0
-8 5 -11 10 -3 6 -1 10 4 10 6 0 11 -4 11 -10z m421 -4971 c13 -120 19 -240
19 -384 0 -254 -16 -667 -30 -790 -9 -71 -7 -126 6 -262 l16 -172 -27 -143
c-33 -172 -37 -331 -12 -484 31 -188 50 -890 27 -976 -12 -42 -90 -115 -101
-95 -9 15 -35 183 -48 309 -10 91 -36 1139 -32 1276 3 79 35 274 60 369 14 50
21 117 24 210 4 107 9 151 26 197 11 32 26 100 32 150 14 114 17 437 5 666 -8
156 -2 320 11 307 2 -3 13 -83 24 -178z"/>
</g>
</svg>
