<?xml version="1.0" standalone="no"?>
<!DOCTYPE svg PUBLIC "-//W3C//DTD SVG 20010904//EN"
 "http://www.w3.org/TR/2001/REC-SVG-20010904/DTD/svg10.dtd">
<svg version="1.0" xmlns="http://www.w3.org/2000/svg"
 width="989.000000pt" height="1280.000000pt" viewBox="0 0 989.000000 1280.000000"
 preserveAspectRatio="xMidYMid meet">
<metadata>
Created by potrace 1.15, written by Peter Selinger 2001-2017
</metadata>
<g transform="translate(0.000000,1280.000000) scale(0.100000,-0.100000)"
fill="#f44336" stroke="none">
<path d="M6523 11660 c-46 -23 -83 -48 -83 -56 0 -17 -17 -19 -22 -3 -3 9 -25
9 -88 0 -91 -14 -162 -47 -181 -85 -17 -31 -70 -86 -101 -102 -15 -7 -39 -36
-54 -64 -17 -31 -48 -66 -81 -91 -67 -50 -107 -105 -122 -165 -7 -28 -24 -58
-44 -77 l-32 -30 30 18 c17 10 35 26 42 34 11 14 12 13 13 -5 0 -12 -10 -29
-22 -38 -16 -12 -18 -16 -5 -12 37 11 14 -11 -39 -37 -30 -15 -52 -31 -49 -36
11 -19 -18 -118 -47 -159 -33 -47 -47 -119 -48 -247 0 -40 -6 -77 -13 -87 -18
-23 -62 -12 -92 24 -27 32 -34 26 -10 -8 8 -12 30 -29 50 -38 31 -15 34 -20
23 -34 -7 -9 2 -5 19 8 34 25 39 25 44 0 4 -19 -20 -90 -30 -90 -10 0 -37 31
-44 50 -4 12 -6 12 -6 -2 -1 -15 180 -208 195 -208 3 0 4 8 2 18 -2 13 3 16
22 14 19 -1 22 0 10 8 -11 7 -12 12 -3 21 8 8 14 6 22 -10 7 -12 10 -21 7 -21
-13 0 18 -62 36 -71 28 -15 58 -69 58 -106 0 -26 -5 -34 -25 -39 -28 -7 -85
16 -116 47 -18 18 -19 18 -19 1 0 -26 26 -46 84 -66 68 -22 84 -21 92 9 3 14
11 25 16 25 6 0 8 -11 6 -25 -4 -19 -1 -25 12 -25 24 0 48 -28 29 -34 -8 -2
-39 -12 -69 -22 -140 -44 -490 -243 -662 -376 -90 -70 -188 -170 -240 -247
-54 -79 -245 -298 -358 -410 -224 -221 -410 -269 -770 -197 -258 52 -499 21
-719 -93 -31 -16 -94 -47 -141 -69 -242 -112 -350 -277 -350 -530 0 -101 14
-173 64 -333 48 -155 141 -547 165 -697 11 -67 27 -214 36 -325 24 -300 74
-652 133 -942 13 -64 16 -138 15 -380 0 -294 -1 -305 -39 -560 -35 -232 -39
-280 -38 -450 0 -138 4 -208 16 -255 39 -162 114 -428 180 -637 39 -125 86
-277 105 -336 38 -124 51 -228 34 -278 -6 -19 -31 -59 -57 -89 -93 -112 -109
-181 -61 -263 15 -25 44 -59 66 -76 59 -47 95 -112 149 -271 63 -186 120 -299
169 -339 21 -17 58 -46 81 -66 46 -37 82 -44 101 -21 9 11 18 12 42 2 28 -10
33 -9 50 13 15 18 23 21 31 13 18 -18 63 -14 82 7 10 11 24 17 31 15 15 -6 55
29 55 49 0 7 14 23 30 35 31 23 41 67 20 88 -7 7 -4 24 7 52 14 37 14 46 2 68
-7 14 -26 32 -42 40 -15 9 -55 42 -88 75 l-59 61 0 92 c0 51 9 141 20 202 24
125 21 233 -10 494 -44 369 -51 611 -36 1305 7 342 6 407 -9 525 -30 240 -31
284 -1 380 14 47 29 108 32 135 3 28 12 73 19 100 8 28 17 97 20 155 4 58 24
183 45 278 30 141 42 180 67 215 17 23 47 73 67 112 21 38 55 88 77 112 21 23
51 68 66 98 25 50 38 62 133 124 184 121 254 181 301 263 23 40 90 152 148
248 102 169 148 236 352 516 99 134 179 261 179 282 0 8 24 12 78 12 92 0 170
19 252 60 33 16 70 30 83 30 32 0 47 18 47 57 0 18 6 37 13 43 21 18 145 90
156 90 6 0 22 5 36 12 23 10 25 16 25 74 0 34 7 95 15 136 9 40 29 166 45 281
46 316 49 328 130 412 141 147 210 260 210 347 0 37 8 60 38 107 20 33 54 86
74 118 60 95 102 138 150 152 53 16 80 39 179 149 54 59 85 86 103 88 25 3 35
-9 17 -20 -5 -3 -7 -14 -5 -24 6 -20 -52 -131 -71 -139 -8 -2 -23 0 -34 6 -17
10 -20 9 -15 -4 4 -8 17 -18 31 -21 31 -8 55 14 87 77 13 26 26 46 29 43 3 -3
3 3 0 15 -3 13 -1 21 6 21 7 0 9 -6 6 -12 -4 -7 -1 -6 7 2 7 9 24 16 38 16 14
0 34 4 44 9 14 6 17 5 12 -3 -4 -7 -1 -12 8 -12 9 0 16 -7 16 -16 0 -30 33
-74 56 -74 27 0 70 34 89 69 14 29 84 101 97 101 4 0 18 -12 31 -26 21 -23 25
-24 37 -9 11 13 11 16 0 13 -7 -2 -15 3 -17 10 -4 9 1 10 19 3 18 -7 29 -4 48
13 40 34 60 68 60 101 -1 29 -1 29 -15 -10 -14 -40 -58 -85 -83 -85 -23 0 -51
78 -41 114 5 17 9 65 9 107 0 42 7 112 15 155 17 92 21 169 10 203 -5 17 -4
21 5 16 6 -4 0 16 -14 44 -49 97 -76 183 -92 299 -2 19 -20 67 -39 107 -20 40
-42 96 -51 124 -8 27 -20 56 -28 63 -7 7 -13 20 -13 28 0 52 -168 248 -243
282 -19 9 -55 37 -80 62 -24 25 -48 46 -53 46 -5 0 -4 -6 2 -14 6 -7 -10 -3
-36 10 -25 13 -54 24 -64 24 -10 0 -30 11 -46 24 -21 17 -46 25 -98 30 -68 7
-72 6 -152 -34z m883 -1072 c4 -42 3 -68 -4 -72 -15 -9 -30 92 -23 154 4 33
20 -18 27 -82z m114 -12 c0 -18 -17 8 -24 34 l-7 25 15 -25 c9 -14 15 -29 16
-34z m-1862 -332 c-9 -8 -36 7 -42 23 -11 28 6 34 26 8 11 -14 18 -28 16 -31z
m1508 -20 c-4 -9 -9 -15 -11 -12 -3 3 -3 13 1 22 4 9 9 15 11 12 3 -3 3 -13
-1 -22z m274 -44 c0 -19 -5 -30 -14 -30 -22 0 -28 17 -14 40 18 28 28 25 28
-10z m-34 -65 c-3 -8 -1 -15 4 -15 5 0 5 -13 0 -31 -14 -49 -20 -47 -20 9 0
31 4 52 11 52 6 0 9 -7 5 -15z m-1237 -38 c0 -21 -1 -21 -9 -2 -12 28 -12 37
0 30 6 -3 10 -16 9 -28z m-1549 -2322 c0 -3 -15 -26 -34 -52 -18 -27 -43 -66
-54 -88 -31 -63 -211 -507 -292 -725 -40 -107 -77 -199 -81 -203 -4 -5 -4 49
-2 120 7 168 -11 436 -42 647 -14 93 -25 175 -25 181 0 11 145 47 400 99 141
29 130 27 130 21z"/>
<path d="M5760 10055 c-8 -9 -8 -15 -2 -15 12 0 26 19 19 26 -2 2 -10 -2 -17
-11z"/>
</g>
</svg>
