<?xml version="1.0" standalone="no"?>
<!DOCTYPE svg PUBLIC "-//W3C//DTD SVG 20010904//EN"
 "http://www.w3.org/TR/2001/REC-SVG-20010904/DTD/svg10.dtd">
<svg version="1.0" xmlns="http://www.w3.org/2000/svg"
 width="989.000000pt" height="1280.000000pt" viewBox="0 0 989.000000 1280.000000"
 preserveAspectRatio="xMidYMid meet">
<metadata>
Created by potrace 1.15, written by Peter Selinger 2001-2017
</metadata>
<g transform="translate(0.000000,1280.000000) scale(0.100000,-0.100000)"
fill="#f44336" stroke="none">
<path d="M5056 12065 c-9 -24 8 -56 74 -139 60 -76 90 -129 90 -161 0 -27 -14
-16 -69 56 -30 38 -59 68 -65 66 -18 -6 -10 -63 13 -95 20 -29 20 -30 1 -47
-34 -31 -36 -79 -5 -156 39 -99 74 -249 81 -348 5 -73 3 -96 -16 -150 -33 -99
-118 -288 -275 -611 -196 -402 -204 -431 -225 -735 -7 -88 -25 -236 -41 -330
-37 -219 -43 -309 -31 -476 19 -262 -16 -433 -164 -779 -132 -310 -142 -324
-504 -695 l-127 -130 -2 -120 c-2 -144 17 -221 78 -306 42 -58 75 -87 153
-132 46 -27 46 -27 83 -144 20 -65 39 -127 42 -138 11 -43 226 -457 301 -582
44 -73 88 -156 97 -185 27 -84 70 -157 139 -238 40 -47 62 -80 58 -90 -3 -8
-51 -89 -106 -180 -161 -266 -252 -478 -400 -927 -36 -111 -83 -230 -102 -265
-61 -105 -169 -332 -188 -392 -26 -83 -19 -113 63 -246 5 -8 23 -45 40 -82 16
-37 49 -89 74 -115 24 -27 53 -63 66 -80 12 -18 42 -56 67 -85 25 -29 79 -105
121 -168 108 -164 221 -312 378 -495 248 -289 430 -550 471 -676 21 -64 11
-114 -46 -236 -32 -69 -54 -99 -112 -155 -40 -38 -97 -85 -125 -105 -29 -19
-53 -40 -53 -46 0 -7 -20 -34 -45 -61 -25 -26 -45 -54 -45 -62 0 -20 40 -83
60 -94 30 -16 88 -11 130 10 22 11 51 20 65 20 39 0 115 43 161 92 22 23 67
81 100 127 68 97 138 164 213 204 l52 29 54 -44 c50 -40 69 -68 45 -68 -11 0
-80 -105 -80 -122 0 -6 7 -20 17 -30 9 -10 21 -28 27 -41 6 -12 21 -23 33 -25
12 -2 27 -10 33 -18 17 -20 47 -18 77 6 34 26 39 25 52 -10 12 -36 50 -42 58
-9 4 16 11 19 27 14 55 -18 61 -14 64 45 8 139 5 164 -33 274 -32 94 -37 118
-32 170 3 34 15 84 27 111 33 75 38 155 12 197 -27 43 -52 57 -139 79 -106 27
-162 59 -233 136 -58 63 -80 103 -282 510 -174 353 -231 458 -277 515 -69 86
-220 234 -310 303 l-63 50 6 45 c3 25 33 99 65 165 55 109 72 133 192 265 174
191 261 296 348 418 118 166 187 249 361 427 383 394 395 407 437 492 117 233
63 438 -162 618 -84 67 -236 146 -325 170 -171 46 -390 217 -390 305 0 45 44
142 107 236 33 49 100 161 148 249 106 194 178 315 186 315 4 0 17 -44 29 -97
58 -254 69 -291 161 -509 37 -89 93 -247 124 -350 67 -226 103 -296 231 -459
163 -207 295 -385 391 -527 102 -151 135 -212 153 -277 8 -30 27 -59 58 -90
26 -25 67 -80 91 -121 25 -41 54 -88 67 -105 12 -16 36 -58 52 -91 48 -95 123
-147 160 -110 13 13 14 20 5 34 -47 69 -112 202 -98 202 3 0 22 -9 42 -20 21
-11 44 -20 51 -20 7 0 33 -14 58 -31 54 -37 139 -75 187 -84 27 -5 38 -3 48
12 8 10 27 23 44 28 40 14 45 42 8 51 -15 3 -82 32 -148 64 -128 61 -139 70
-321 271 -132 145 -295 450 -479 898 -77 188 -111 257 -174 355 -116 180 -140
235 -268 611 -85 254 -88 264 -113 447 -30 214 -89 365 -180 458 -25 25 -90
72 -146 103 -165 92 -292 196 -187 152 39 -17 44 -20 111 -78 40 -35 88 -62
104 -59 4 1 23 -5 44 -14 31 -13 48 -14 108 -4 41 7 86 22 106 35 19 13 60 33
90 46 80 33 154 84 245 169 96 90 136 150 170 257 36 115 42 189 20 249 -10
27 -23 55 -28 62 -14 18 -19 70 -8 76 5 3 3 23 -5 43 -7 21 -13 48 -14 61 0
12 -7 25 -15 28 -9 4 -15 19 -15 38 0 17 -7 40 -15 50 -8 11 -15 26 -15 34 0
7 -11 28 -25 46 -14 18 -25 41 -25 52 0 42 -23 95 -54 129 -18 19 -44 56 -57
82 -26 52 -34 61 -93 99 -28 19 -41 23 -46 14 -6 -9 -14 -8 -33 4 -15 10 -51
18 -91 20 -55 3 -66 0 -66 -13 0 -12 -2 -13 -9 -3 -10 16 -96 6 -126 -14 -11
-8 -28 -14 -38 -14 -10 0 -32 -7 -50 -17 -30 -15 -31 -15 -18 0 20 25 11 22
-75 -28 -87 -49 -101 -51 -183 -14 -59 27 -81 22 -108 -26 -14 -26 -30 -40
-43 -41 -12 -1 -33 -13 -49 -28 -15 -15 -39 -26 -54 -26 -15 0 -35 -9 -44 -20
-19 -22 -39 -27 -27 -7 6 8 3 8 -9 -1 -9 -8 -33 -22 -53 -33 l-37 -18 6 97 c8
124 62 527 81 595 7 29 29 90 49 137 42 101 62 179 117 445 58 287 111 489
185 704 22 66 25 91 25 215 -1 191 -15 368 -34 403 -8 16 -25 68 -39 115 -19
69 -34 98 -78 154 -30 38 -59 78 -65 88 -14 27 -29 30 -48 10 -16 -15 -19 -15
-40 5 -26 25 -42 27 -50 6z m1157 -2890 c-3 -8 -9 -15 -14 -15 -10 0 -12 24
-3 33 11 11 24 -3 17 -18z m173 -936 c-24 -56 -87 -118 -182 -182 -58 -39 -64
-33 -17 16 43 45 103 129 103 145 0 11 78 77 100 84 23 8 22 -4 -4 -63z m-974
-161 c-8 -8 -17 -8 -34 0 -22 10 -21 11 12 11 26 1 31 -2 22 -11z m178 -148
c0 -5 -4 -10 -9 -10 -6 0 -13 5 -16 10 -3 6 1 10 9 10 9 0 16 -4 16 -10z m480
-20 c-8 -5 -19 -10 -25 -10 -5 0 -3 5 5 10 8 5 20 10 25 10 6 0 3 -5 -5 -10z"/>
<path d="M5495 9313 c-21 -15 -34 -28 -27 -31 7 -2 28 10 48 27 43 38 32 40
-21 4z"/>
</g>
</svg>
