<?xml version="1.0" standalone="no"?>
<!DOCTYPE svg PUBLIC "-//W3C//DTD SVG 20010904//EN"
 "http://www.w3.org/TR/2001/REC-SVG-20010904/DTD/svg10.dtd">
<svg version="1.0" xmlns="http://www.w3.org/2000/svg"
 width="1280.000000pt" height="989.000000pt" viewBox="0 0 1280.000000 989.000000"
 preserveAspectRatio="xMidYMid meet">
<metadata>
Created by potrace 1.15, written by Peter Selinger 2001-2017
</metadata>
<g transform="translate(0.000000,989.000000) scale(0.100000,-0.100000)"
fill="#f44336" stroke="none">
<path d="M8181 9339 c-41 -25 -187 -145 -254 -208 -50 -48 -82 -93 -157 -223
-56 -96 -270 -413 -360 -533 -38 -49 -109 -129 -158 -177 -146 -141 -155 -175
-199 -793 -10 -138 -9 -144 28 -293 31 -123 51 -164 157 -330 26 -42 38 -52
53 -47 13 4 19 2 19 -8 0 -9 -31 -28 -77 -47 -121 -51 -146 -57 -328 -85 -480
-74 -569 -95 -714 -166 -169 -83 -284 -215 -326 -374 -20 -77 -19 -204 1 -277
l17 -59 -32 -42 c-80 -107 -192 -301 -296 -512 -118 -240 -250 -463 -313 -528
-20 -21 -74 -67 -118 -103 -45 -35 -98 -82 -117 -105 l-35 -43 -118 111 c-312
292 -695 581 -1054 797 -329 198 -519 271 -685 264 -72 -3 -88 -7 -139 -38
-69 -41 -205 -166 -245 -224 -16 -23 -40 -72 -54 -111 l-25 -70 -258 0 c-237
0 -266 -2 -337 -22 -118 -34 -194 -71 -231 -114 -41 -48 -104 -177 -142 -289
-38 -112 -40 -253 -6 -341 39 -99 71 -132 226 -233 152 -99 329 -237 513 -399
l113 -99 -5 -222 c-14 -592 -17 -650 -56 -961 -29 -233 -56 -386 -88 -505 -16
-58 -34 -134 -41 -170 -6 -36 -20 -112 -32 -169 -32 -159 -24 -218 52 -421 34
-91 63 -178 64 -193 1 -26 -6 -33 -80 -71 -125 -65 -213 -125 -220 -151 -8
-32 20 -80 56 -95 16 -7 30 -18 30 -25 0 -28 41 -65 72 -65 20 0 39 -9 54 -25
25 -27 70 -33 106 -14 16 9 24 7 42 -10 30 -28 68 -26 105 4 l30 26 3 -27 c7
-58 74 -57 113 3 12 17 46 50 75 74 96 79 123 172 118 419 -2 152 -2 157 25
212 21 43 51 76 130 145 122 106 160 166 159 248 -1 77 -22 117 -121 219 -70
72 -91 101 -97 131 -10 56 2 198 26 290 30 116 211 698 222 710 10 11 288
-262 466 -459 64 -70 151 -174 192 -231 88 -121 248 -300 328 -368 33 -27 125
-82 217 -128 149 -76 290 -156 325 -185 28 -23 22 -57 -11 -77 -28 -15 -31
-21 -25 -51 6 -33 5 -35 -31 -47 -21 -6 -41 -17 -45 -23 -16 -24 -7 -67 21
-98 25 -28 35 -32 93 -36 102 -6 129 11 243 158 75 97 90 131 89 195 0 52 -9
77 -63 190 -66 136 -136 236 -254 365 -100 109 -105 121 -84 223 25 121 23
183 -10 247 -41 79 -72 92 -221 91 -80 -1 -136 4 -170 14 -76 23 -185 115
-286 242 -108 135 -279 383 -264 383 6 0 137 -60 290 -132 l279 -133 302 -309
c166 -170 338 -340 383 -377 112 -95 289 -211 376 -247 308 -128 648 -52 826
184 69 92 123 204 165 344 63 207 70 368 27 564 -26 117 -25 185 4 328 28 135
55 199 100 232 47 36 282 174 360 212 37 18 132 53 210 78 77 24 220 69 316
100 96 30 243 83 325 116 355 145 440 171 625 192 83 9 137 9 231 0 153 -14
223 -45 314 -136 56 -57 65 -74 148 -266 124 -290 358 -728 470 -880 65 -88
111 -186 127 -271 6 -30 6 -96 0 -170 -9 -125 7 -505 31 -744 18 -167 15 -374
-5 -483 -10 -50 -21 -94 -25 -97 -4 -2 -68 -7 -142 -10 -87 -5 -155 -13 -194
-26 -33 -10 -87 -23 -121 -28 -33 -5 -78 -17 -100 -26 -21 -10 -64 -20 -94
-24 -48 -5 -55 -9 -58 -29 -5 -31 13 -50 59 -64 38 -11 53 -28 25 -28 -23 0
-296 -145 -308 -162 -10 -18 10 -48 39 -59 l27 -10 -32 -19 c-18 -11 -32 -24
-32 -30 0 -19 40 -50 66 -50 33 0 161 43 225 76 28 14 55 24 60 22 6 -2 -17
-16 -49 -31 -33 -16 -74 -41 -91 -55 -30 -26 -31 -28 -16 -49 13 -18 26 -23
62 -23 36 0 72 13 167 60 109 54 192 85 174 65 -4 -4 -35 -24 -69 -44 -73 -42
-89 -62 -70 -85 21 -26 70 -18 166 24 56 25 124 47 180 56 51 9 113 28 145 44
30 15 83 39 116 53 79 32 206 118 236 159 22 31 23 42 24 193 1 162 5 192 48
448 42 244 49 365 42 687 -10 402 -31 724 -51 780 -8 24 -31 71 -49 105 -19
33 -99 189 -179 346 -79 157 -185 357 -235 445 -89 156 -91 161 -112 279 -37
203 -90 346 -188 502 -57 91 -63 106 -29 76 13 -11 38 -20 62 -22 67 -3 198
-30 214 -45 26 -22 361 -9 361 15 0 4 17 12 38 17 298 72 377 98 483 162 80
49 122 93 139 146 19 56 118 218 144 236 6 4 11 11 12 15 2 29 17 73 25 73 6
0 8 -4 4 -9 -3 -5 -2 -12 3 -15 9 -5 38 62 34 77 -1 5 12 27 29 49 36 45 43
86 55 308 4 63 10 120 15 126 5 6 8 24 8 40 0 16 1 67 2 114 2 88 -7 151 -22
161 -5 3 -4 19 2 37 10 30 8 140 -6 237 -3 22 -10 78 -16 125 -7 50 -19 99
-31 118 -15 25 -18 36 -9 45 6 6 11 16 11 21 0 6 -5 5 -12 -2 -19 -19 -30 -14
-23 11 6 18 5 20 -6 9 -11 -10 -20 -5 -51 25 -21 20 -38 42 -38 49 0 15 -55
37 -95 38 -23 1 -30 5 -28 19 0 11 -4 16 -12 13 -7 -2 -15 -2 -18 1 -13 13
-106 11 -117 -2 -9 -11 -16 -12 -31 -2 -15 9 -21 8 -33 -8 -9 -11 -16 -15 -16
-9 0 5 5 15 12 22 17 17 8 21 -48 27 -27 2 -41 2 -31 -1 18 -5 18 -7 -2 -21
-12 -8 -19 -18 -16 -22 2 -5 -12 -7 -32 -5 -20 1 -39 7 -42 13 -4 6 -81 12
-204 14 -213 4 -209 3 -262 67 -37 46 -68 70 -89 70 -12 0 -43 -16 -70 -35
-53 -38 -83 -44 -93 -19 -4 12 -8 11 -17 -8 -14 -28 -55 -35 -93 -14 -24 13
-25 15 -8 17 33 3 -75 17 -136 18 -31 1 -72 -5 -90 -13 -21 -8 -75 -14 -139
-15 l-105 -1 -38 -42 c-20 -22 -35 -43 -32 -46 3 -3 -2 -13 -11 -23 -20 -23
-12 -49 16 -49 12 0 18 5 15 10 -9 15 32 68 65 85 28 15 160 22 173 9 9 -10
-4 -34 -19 -34 -8 0 -14 -4 -14 -9 0 -5 -13 -8 -28 -6 -32 4 -47 -4 -47 -25 0
-16 -43 -29 -127 -36 -51 -5 -58 -3 -59 13 0 10 -3 13 -6 6 -2 -7 -18 -13 -33
-13 -32 0 -118 -26 -137 -42 -6 -5 -9 -16 -6 -24 4 -11 9 -12 16 -5 16 16 41
14 27 -1 -6 -7 -26 -34 -45 -60 l-36 -48 5 -164 c3 -91 1 -168 -3 -170 -5 -3
-2 -29 5 -58 19 -73 18 -87 -11 -98 -24 -9 -25 -13 -19 -47 14 -68 11 -88 -13
-91 -23 -3 -112 80 -139 131 -21 38 -19 107 4 197 51 197 55 555 7 755 -44
185 -48 216 -42 330 6 118 43 374 83 570 30 146 48 390 41 545 -4 95 -12 138
-45 248 -44 147 -57 168 -136 207 -61 30 -100 32 -145 4z m-305 -1282 c-17
-140 -46 -438 -46 -469 0 -39 -18 -13 -80 113 -52 107 -72 137 -111 170 -44
37 -47 42 -38 68 14 39 97 130 199 217 71 61 86 70 88 53 2 -11 -4 -79 -12
-152z m-194 -686 c15 -12 35 -50 52 -99 l28 -80 -36 -89 c-20 -48 -57 -118
-82 -156 -44 -64 -110 -127 -132 -127 -6 0 -14 16 -18 36 -8 43 46 232 88 309
16 30 32 80 38 125 18 114 19 115 62 81z m1676 -106 c-6 -6 -58 8 -58 16 0 4
14 3 31 -3 16 -6 29 -12 27 -13z m-106 -20 c-22 -19 -41 -25 -76 -25 -25 0
-46 4 -46 9 0 22 46 41 98 41 l54 0 -30 -25z m1312 -49 c-6 -16 -24 -23 -24
-8 0 10 22 33 27 28 2 -2 1 -11 -3 -20z m-1584 -74 c0 -41 -44 -46 -89 -9 -12
10 -8 13 20 18 60 11 69 10 69 -9z m-99 -79 c27 -16 46 -47 41 -67 -2 -4 2
-14 8 -20 22 -27 -25 -34 -92 -14 -38 11 -59 43 -44 67 4 5 2 12 -4 16 -17 10
-11 23 13 28 41 8 49 7 78 -10z m-134 -142 c51 -42 62 -70 54 -136 l-6 -50
-27 26 c-15 15 -29 25 -32 22 -2 -2 -16 3 -31 13 -35 23 -68 89 -61 120 8 28
22 30 50 7 21 -18 21 -18 4 3 -21 24 -24 49 -5 38 6 -4 31 -24 54 -43z m136
-83 c25 1 28 -2 25 -26 -3 -31 -38 -45 -38 -16 0 16 -1 16 -14 -2 -17 -23 -24
-18 -32 26 -7 30 -5 33 12 25 10 -5 32 -8 47 -7z m-224 -40 c-12 -23 -44 -25
-35 -2 3 9 6 22 6 30 0 11 4 12 19 2 15 -9 17 -16 10 -30z m221 -73 c0 -16 -9
-19 -34 -9 -25 9 -19 24 9 24 16 0 25 -6 25 -15z m-222 -67 c6 -13 11 -59 10
-102 0 -66 3 -82 18 -93 17 -12 17 -14 -2 -28 -27 -20 -34 -19 -35 8 -1 70
-10 195 -14 215 -3 12 -2 22 3 22 5 0 14 -10 20 -22z m80 3 c3 -8 -1 -12 -9
-9 -7 2 -15 10 -17 17 -3 8 1 12 9 9 7 -2 15 -10 17 -17z m92 -78 c0 -13 -52
-73 -63 -73 -7 0 -23 7 -35 16 l-23 16 43 23 c43 22 78 31 78 18z m447 -1069
c-3 -3 -12 -4 -19 -1 -8 3 -5 6 6 6 11 1 17 -2 13 -5z m-259 -50 c33 -16 42
-38 20 -47 -7 -3 -2 -6 10 -6 33 -1 22 -24 -16 -35 -18 -5 -34 -7 -36 -5 -6 6
-18 109 -13 109 2 0 18 -7 35 -16z m1462 -136 c-1 -19 -26 -49 -57 -70 -53
-34 -57 -18 -8 32 50 51 65 60 65 38z m-1375 -10 c29 -13 32 -23 9 -32 -8 -3
-13 -2 -10 3 7 11 -20 22 -37 15 -8 -3 -20 2 -27 11 -11 13 -9 15 13 15 14 0
38 -5 52 -12z m90 -68 c3 -6 -1 -7 -9 -4 -18 7 -21 14 -7 14 6 0 13 -4 16 -10z
m65 -87 c12 -11 12 -13 -2 -13 -9 0 -23 6 -30 13 -7 8 -23 19 -36 26 -12 6
-22 16 -22 22 0 11 62 -23 90 -48z"/>
<path d="M9428 7323 c7 -3 16 -2 19 1 4 3 -2 6 -13 5 -11 0 -14 -3 -6 -6z"/>
<path d="M10926 6523 c-6 -14 -5 -15 5 -6 7 7 10 15 7 18 -3 3 -9 -2 -12 -12z"/>
</g>
</svg>
