<?xml version="1.0" standalone="no"?>
<!DOCTYPE svg PUBLIC "-//W3C//DTD SVG 20010904//EN"
 "http://www.w3.org/TR/2001/REC-SVG-20010904/DTD/svg10.dtd">
<svg version="1.0" xmlns="http://www.w3.org/2000/svg"
 width="1280.000000pt" height="1198.000000pt" viewBox="0 0 1280.000000 1198.000000"
 preserveAspectRatio="xMidYMid meet">
<metadata>
Created by potrace 1.15, written by Peter Selinger 2001-2017
</metadata>
<g transform="translate(0.000000,1198.000000) scale(0.100000,-0.100000)"
fill="#f44336" stroke="none">
<path d="M10043 7940 c-106 -15 -305 -69 -350 -96 -38 -22 -47 -34 -44 -56 0
-3 -16 -21 -37 -38 -49 -43 -103 -110 -96 -121 2 -5 -4 -25 -14 -46 -29 -57
-37 -117 -19 -145 9 -13 21 -59 27 -103 7 -44 16 -91 20 -105 8 -22 9 -21 9
12 1 20 6 40 12 44 8 5 10 -3 6 -27 -4 -19 -11 -70 -17 -114 -5 -44 -14 -96
-20 -115 -41 -142 -12 -441 57 -588 17 -36 19 -34 -95 -175 l-55 -68 -57 7
c-41 4 -78 1 -136 -14 -43 -11 -124 -27 -179 -36 -55 -9 -129 -22 -165 -29
-39 -7 -121 -10 -205 -7 -331 9 -477 6 -550 -14 -244 -66 -375 -215 -375 -426
0 -109 27 -179 98 -252 l46 -48 -31 -42 c-30 -41 -33 -43 -114 -55 -46 -7
-105 -20 -131 -29 -28 -9 -72 -14 -115 -12 l-68 3 -6 115 c-26 480 -83 902
-170 1260 -37 151 -164 544 -226 695 -99 244 -238 466 -329 526 -79 53 -262
97 -356 86 -55 -7 -190 -68 -260 -118 -134 -97 -315 -244 -453 -369 -44 -39
-134 -110 -200 -158 -66 -47 -139 -100 -162 -119 l-42 -34 -61 12 c-83 16
-210 7 -285 -21 -48 -18 -76 -39 -135 -99 -112 -114 -193 -208 -318 -370 -62
-80 -125 -158 -140 -173 -32 -31 -108 -74 -297 -166 -296 -144 -513 -316 -640
-507 -109 -163 -278 -321 -358 -336 -44 -8 -235 -41 -347 -59 -83 -14 -141
-42 -163 -79 -22 -37 -22 -84 1 -104 21 -18 100 -55 202 -91 41 -15 86 -32
100 -37 50 -18 216 -49 268 -49 28 0 52 -4 52 -9 0 -13 -232 -239 -311 -303
-93 -76 -288 -249 -325 -289 -17 -19 -64 -79 -104 -134 -39 -55 -78 -103 -85
-108 -18 -10 -55 -71 -55 -91 0 -32 -122 -220 -214 -330 -119 -142 -167 -186
-205 -186 -29 0 -222 -48 -379 -94 -137 -40 -187 -88 -180 -176 3 -43 5 -46
43 -58 61 -21 258 -58 375 -72 59 -7 175 -10 265 -8 175 4 248 21 330 77 22
15 77 53 122 84 46 31 86 57 90 57 3 0 14 6 22 14 25 21 141 81 198 101 44 16
58 17 91 7 50 -15 76 -44 68 -75 -3 -13 -91 -153 -196 -311 -105 -159 -190
-289 -188 -290 2 -1 16 -10 32 -20 33 -21 31 -22 93 69 57 82 187 261 212 291
14 17 44 53 66 80 82 101 238 263 357 371 26 23 59 64 75 90 25 43 28 57 27
138 0 100 -17 169 -69 281 -30 66 -35 71 -59 67 -21 -4 -26 -2 -26 15 0 28 73
113 221 258 138 133 213 197 434 364 151 115 410 330 564 469 94 86 199 204
356 401 119 150 168 228 215 342 31 73 56 102 65 75 6 -16 47 -153 90 -297 62
-213 145 -473 171 -539 15 -36 80 -174 145 -306 106 -216 123 -259 173 -430
83 -286 114 -362 211 -510 131 -201 320 -349 527 -416 32 -10 82 -34 111 -53
235 -155 583 -166 887 -29 72 32 191 94 232 119 40 26 42 26 71 9 38 -23 88
-15 135 22 33 25 44 28 127 29 75 0 97 5 135 25 45 24 48 24 295 22 138 -1
272 -5 298 -10 l48 -8 -30 -40 c-37 -49 -39 -68 -5 -83 32 -15 50 -6 128 65
53 47 64 53 103 53 63 0 56 -28 -12 -50 -101 -32 -118 -59 -65 -103 17 -14 30
-30 30 -35 0 -6 -20 -37 -45 -71 -71 -96 -71 -130 1 -131 21 0 39 9 60 32 41
45 106 127 128 161 9 16 20 26 23 24 7 -8 -16 -47 -57 -97 -58 -70 -65 -88
-44 -111 23 -25 55 -24 90 3 44 34 59 53 139 175 41 61 83 116 93 122 11 6 38
13 60 17 31 5 44 2 59 -13 17 -17 18 -28 12 -118 -4 -55 -15 -117 -23 -138
-18 -42 -10 -71 24 -82 49 -16 93 57 116 190 8 44 19 101 25 126 l10 46 73 5
c46 3 90 13 118 26 24 12 58 22 74 22 44 0 173 -33 324 -83 321 -107 430 -129
840 -167 52 -5 109 -12 126 -15 40 -9 113 11 142 38 45 42 70 185 52 304 -13
88 -22 117 -87 288 -84 221 -222 717 -309 1110 -73 331 -101 421 -182 584 -81
162 -169 230 -323 251 -46 6 -85 13 -87 15 -5 5 29 128 47 170 10 22 37 85 61
140 70 164 64 155 70 106 l5 -43 27 56 c19 39 34 56 47 56 23 0 81 63 81 88 0
10 13 31 29 46 47 45 140 244 159 337 10 55 19 78 28 75 22 -8 45 60 47 141 2
67 5 78 21 81 16 3 17 10 12 55 -11 82 -49 139 -135 205 -42 32 -83 61 -91 64
-9 3 -22 18 -30 34 -26 53 -82 115 -135 151 -101 67 -324 105 -482 83z m-3752
-972 c-24 -86 -53 -228 -86 -423 -37 -215 -48 -265 -57 -265 -4 0 -8 4 -8 8 0
11 -117 169 -176 239 -24 28 -44 55 -44 60 0 4 28 28 61 53 109 81 219 206
272 308 26 51 48 103 48 115 l2 22 4 -22 c2 -12 -5 -55 -16 -95z m4029 -1898
c71 -119 82 -145 126 -282 25 -79 84 -256 130 -394 46 -138 84 -258 84 -266 0
-12 -24 -16 -137 -21 -76 -3 -172 -11 -213 -16 -118 -16 -357 -29 -449 -23
l-84 4 7 62 c4 33 15 144 26 246 11 102 27 232 36 290 8 58 19 127 22 155 l7
49 205 127 c113 69 206 126 206 125 1 -1 16 -26 34 -56z m-1015 -650 l0 -104
-80 -12 c-94 -14 -345 -76 -610 -150 -97 -27 -251 -65 -300 -74 -27 -5 -90
-16 -140 -25 -49 -9 -98 -18 -107 -21 -10 -3 -18 0 -18 5 0 12 132 79 195 99
22 7 74 22 115 33 250 66 584 195 860 331 84 41 85 40 85 -82z"/>
</g>
</svg>
