<?xml version="1.0" standalone="no"?>
<!DOCTYPE svg PUBLIC "-//W3C//DTD SVG 20010904//EN"
 "http://www.w3.org/TR/2001/REC-SVG-20010904/DTD/svg10.dtd">
<svg version="1.0" xmlns="http://www.w3.org/2000/svg"
 width="791.000000pt" height="1280.000000pt" viewBox="0 0 791.000000 1280.000000"
 preserveAspectRatio="xMidYMid meet">
<metadata>
Created by potrace 1.15, written by Peter Selinger 2001-2017
</metadata>
<g transform="translate(0.000000,1280.000000) scale(0.100000,-0.100000)"
fill="#f44336" stroke="none">
<path d="M4603 10526 c-97 -32 -249 -138 -332 -233 -42 -47 -91 -133 -105
-183 -4 -14 -24 -57 -43 -97 -32 -65 -37 -83 -41 -172 -3 -70 -8 -98 -16 -95
-25 10 -59 -44 -64 -100 -4 -50 -2 -58 24 -84 16 -16 35 -31 42 -33 11 -4 11
-16 -2 -66 -19 -71 -21 -166 -5 -211 13 -37 -3 -97 -28 -106 -23 -9 -28 1 -12
20 13 16 10 17 -31 11 -55 -7 -99 -50 -102 -100 -3 -60 -5 -72 -17 -100 -6
-16 -11 -32 -11 -36 0 -4 -13 -22 -29 -40 -31 -34 -46 -88 -35 -123 4 -15 3
-18 -6 -13 -7 4 -11 4 -8 -1 2 -5 12 -26 21 -46 10 -21 24 -38 32 -38 9 0 20
-12 26 -27 12 -32 38 -63 51 -63 6 0 -2 14 -17 31 -36 44 -23 48 29 11 24 -18
49 -32 55 -32 6 0 11 -4 11 -9 0 -12 -82 -20 -95 -10 -12 12 -75 11 -75 0 0
-6 -29 -24 -64 -40 -153 -74 -216 -210 -266 -576 -12 -88 -32 -218 -45 -290
-14 -71 -38 -220 -55 -330 -46 -306 -87 -440 -174 -577 -62 -98 -65 -101 -191
-201 -60 -47 -150 -121 -200 -162 -91 -77 -161 -125 -383 -261 -100 -61 -130
-86 -164 -132 -23 -31 -102 -116 -174 -188 -78 -77 -148 -157 -171 -195 -22
-35 -50 -80 -62 -99 -125 -195 -141 -224 -126 -232 19 -11 53 6 88 46 l28 31
-5 -30 c-3 -16 -8 -60 -12 -98 -6 -59 -4 -67 10 -61 14 5 16 -3 16 -57 0 -96
16 -179 60 -308 27 -78 45 -155 56 -236 25 -192 108 -548 144 -615 8 -16 121
-373 189 -600 52 -173 101 -373 142 -575 32 -155 33 -168 33 -405 1 -179 -4
-285 -18 -395 -17 -141 -20 -154 -56 -210 -21 -33 -53 -92 -73 -130 -19 -39
-56 -90 -82 -115 -141 -135 -223 -301 -181 -364 19 -30 62 -43 176 -52 174
-13 282 26 400 144 89 89 111 127 139 243 12 46 39 122 61 168 38 79 126 211
141 211 10 0 19 -65 26 -198 7 -137 11 -145 76 -146 l42 -1 -3 200 c-4 219 5
286 55 397 29 66 28 98 -7 190 -42 114 -163 263 -221 275 -16 3 -33 11 -38 17
-19 22 -40 125 -46 223 -3 54 -8 123 -10 153 -3 30 -7 287 -10 570 -6 558 -11
621 -65 832 -17 64 -54 177 -84 251 -58 144 -91 245 -82 254 10 11 158 -29
254 -69 53 -22 124 -51 157 -64 33 -14 69 -29 80 -34 105 -48 230 -84 315 -91
52 -5 101 -11 108 -14 8 -3 -59 -64 -160 -146 -95 -78 -179 -149 -185 -157
-18 -22 -17 -146 0 -161 8 -6 38 -14 68 -18 l54 -8 7 -1145 c6 -1075 17 -1664
33 -1689 3 -7 43 -11 95 -11 82 0 90 2 102 23 12 23 17 123 38 816 l11 374 57
80 57 79 49 -6 c27 -3 50 -7 52 -9 2 -1 6 -104 10 -227 4 -124 11 -233 16
-242 7 -15 23 -18 98 -18 60 0 91 4 97 12 4 7 10 117 13 243 l5 230 145 -4
c80 -2 395 -11 700 -20 l555 -16 3 -229 c1 -149 6 -234 13 -243 15 -18 172
-18 187 0 6 7 13 107 18 240 4 125 10 227 14 227 3 0 15 -17 25 -37 18 -36 20
-80 30 -669 8 -509 13 -634 24 -647 10 -13 32 -17 97 -17 78 0 85 2 93 23 23
55 56 1373 61 2397 1 212 5 399 9 415 6 27 11 31 52 35 69 8 79 21 79 99 l0
67 -130 166 c-71 92 -130 168 -130 171 0 2 37 7 83 10 54 3 106 14 152 32 39
14 88 31 110 37 22 6 49 19 60 29 35 31 370 153 403 147 38 -7 5 -136 -81
-318 -94 -200 -131 -384 -131 -640 1 -322 -16 -1081 -27 -1182 -12 -114 -31
-184 -48 -180 -25 5 -82 -41 -137 -111 -63 -80 -144 -240 -144 -284 0 -15 13
-55 29 -88 49 -100 65 -206 56 -370 -4 -77 -8 -158 -9 -180 l-1 -40 53 1 c29
1 56 4 59 7 3 3 7 34 8 69 6 107 17 211 24 230 16 43 131 -208 176 -383 18
-69 54 -147 92 -197 80 -107 235 -170 439 -179 146 -7 168 -3 184 36 30 75
-31 227 -147 365 -36 44 -81 111 -99 150 -18 39 -51 105 -74 146 -38 68 -43
86 -55 195 -21 179 -28 454 -16 572 28 269 135 678 341 1306 117 360 145 475
185 779 9 64 29 161 46 215 24 75 32 124 36 211 3 66 10 112 16 112 7 0 8 36
4 106 l-7 106 48 -51 c50 -53 57 -57 81 -42 12 7 6 23 -31 83 -25 40 -54 91
-65 113 -50 103 -132 217 -212 300 -94 96 -185 208 -210 258 -11 21 -70 69
-182 147 -203 140 -234 166 -374 300 -60 58 -132 123 -158 145 -56 45 -86 86
-151 206 -72 134 -109 282 -136 554 -6 61 -24 193 -40 295 -16 102 -36 250
-46 330 -20 178 -54 330 -89 404 -33 70 -102 141 -161 168 -25 11 -55 29 -66
40 -19 19 -31 20 -89 2 -14 -4 -16 2 -11 43 2 26 9 53 14 60 17 21 -18 64
-106 133 -27 21 -49 49 -56 70 -7 19 -32 72 -56 117 -44 82 -53 110 -34 98 6
-3 10 -1 10 5 0 20 19 0 37 -38 14 -29 18 -33 21 -18 3 11 -1 44 -8 73 -12 48
-11 55 5 73 18 20 18 23 -9 115 -37 127 -41 204 -22 367 21 177 20 242 -4 358
-25 122 -73 218 -151 304 -53 57 -77 74 -167 118 -93 44 -116 51 -186 55 -45
3 -86 10 -93 15 -20 16 -145 19 -190 4z m741 -1356 c6 -57 5 -63 -8 -47 -21
27 -29 86 -15 103 6 8 13 13 14 12 1 -2 5 -32 9 -68z m-1204 -79 c0 -6 -4 -13
-10 -16 -5 -3 -10 1 -10 9 0 9 5 16 10 16 6 0 10 -4 10 -9z m-116 -100 c17 -7
15 -10 -17 -30 -48 -29 -97 -22 -97 15 0 22 4 24 48 23 26 0 56 -4 66 -8z
m1563 -368 c-3 -34 -6 -38 -31 -41 -28 -3 -28 -3 -12 19 9 13 16 31 16 41 0
10 6 18 14 18 11 0 14 -10 13 -37z m-187 13 c0 -3 -4 -8 -10 -11 -5 -3 -10 -1
-10 4 0 6 5 11 10 11 6 0 10 -2 10 -4z m87 -32 c-3 -3 -12 -4 -19 -1 -8 3 -5
6 6 6 11 1 17 -2 13 -5z m-1568 -836 c0 -45 -3 -57 -9 -43 -12 28 -12 105 0
105 6 0 10 -27 9 -62z m1675 -70 c-3 -4 -9 -8 -15 -8 -11 0 -12 34 -2 81 7 34
7 34 15 -15 4 -28 5 -53 2 -58z m-1925 -1257 c21 -277 18 -271 104 -271 l50 0
-6 -102 c-4 -57 -7 -122 -7 -144 0 -35 -8 -52 -51 -105 -74 -94 -88 -97 -239
-59 -25 6 -66 10 -92 7 -26 -2 -51 0 -56 5 -5 5 -46 3 -100 -7 -71 -12 -612
-40 -618 -32 0 1 -10 29 -22 62 -11 33 -27 77 -36 98 l-17 38 33 13 c18 8 94
35 168 61 332 116 574 240 684 350 68 67 96 118 142 251 21 60 40 102 41 94 2
-8 11 -125 22 -259z m2261 -33 c19 -33 55 -79 80 -101 116 -103 339 -226 620
-341 103 -42 154 -67 153 -77 -1 -8 -19 -54 -41 -104 l-40 -90 -64 2 c-404 12
-501 17 -483 24 12 6 -54 8 -166 5 l-187 -4 -36 48 -36 47 0 167 0 166 49 0
c29 0 55 6 64 14 13 13 37 191 37 274 0 18 3 32 8 32 4 0 23 -28 42 -62z
m-977 -1714 c96 -14 54 -24 -100 -24 -177 0 -386 10 -378 18 18 18 369 23 478
6z m-1149 -1022 c3 -5 6 -135 7 -289 l2 -281 -97 -126 c-54 -69 -99 -126 -102
-126 -2 0 -4 187 -4 415 l0 415 94 0 c52 0 97 -4 100 -8z m1551 -17 c11 -1 41
-3 67 -4 l46 -1 -5 -412 c-3 -227 -6 -414 -7 -415 -1 -2 -893 24 -1183 35
l-202 7 -6 403 -7 404 639 -8 c351 -4 647 -8 658 -9z m405 -127 c0 -68 -3
-228 -7 -357 l-6 -234 -22 44 c-22 43 -23 48 -17 357 l5 312 23 0 c24 0 24 -1
24 -122z"/>
</g>
</svg>
